<?xml version="1.0" encoding="UTF-8"?><!DOCTYPE svg PUBLIC "-//W3C//DTD SVG 1.1//EN" "http://www.w3.org/Graphics/SVG/1.1/DTD/svg11.dtd"><svg xmlns="http://www.w3.org/2000/svg" xmlns:xlink="http://www.w3.org/1999/xlink"><defs/><symbol id="arrowForward" viewBox="0 0 24 24">
    <path d="M11.1161 6.88388C10.628 6.39573 10.628 5.60427 11.1161 5.11612C11.6043 4.62796 12.3957 4.62796 12.8839 5.11612L11.1161 6.88388ZM18 12L18.8839 11.1161C19.1183 11.3505 19.25 11.6685 19.25 12C19.25 12.3315 19.1183 12.6495 18.8839 12.8839L18 12ZM12.8839 18.8839C12.3957 19.372 11.6043 19.372 11.1161 18.8839C10.628 18.3957 10.628 17.6043 11.1161 17.1161L12.8839 18.8839ZM12.8839 5.11612L18.8839 11.1161L17.1161 12.8839L11.1161 6.88388L12.8839 5.11612ZM18.8839 12.8839L12.8839 18.8839L11.1161 17.1161L17.1161 11.1161L18.8839 12.8839Z" fill="currentColor"/>
    <path d="M6 12L17 12" stroke="currentColor" stroke-width="2.5" stroke-linecap="round" stroke-linejoin="round"/>
</symbol><symbol id="chevronDown" viewBox="0 0 24 24">
<path fill-rule="evenodd" clip-rule="evenodd" d="M5.32951 8.18816C5.72004 7.79763 6.3532 7.79763 6.74373 8.18816L12.0366 13.4811L17.3295 8.18816C17.72 7.79763 18.3532 7.79763 18.7437 8.18816C19.1343 8.57868 19.1343 9.21185 18.7437 9.60237L12.7437 15.6024C12.3532 15.9929 11.72 15.9929 11.3295 15.6024L5.32951 9.60237C4.93899 9.21185 4.93899 8.57868 5.32951 8.18816Z" fill="currentColor"/>
</symbol><symbol id="envelopeStars" viewBox="0 0 184 107">
<ellipse opacity="0.3" cx="92.6657" cy="53.7535" rx="55.919" ry="53.2464" fill="#3F51B5"/>
<path d="M68.7498 21.0176C85.9406 21.0176 97.7457 12.5384 106.029 12.5384C114.313 12.5384 131.71 17.0726 131.71 53.3583C131.71 89.644 108.306 94.9686 99.1946 94.9686C56.5297 94.971 38.3051 21.0176 68.7498 21.0176Z" fill="#EFEFEF"/>
<path d="M65.2566 21.5922L68.7713 18.2454L70.5287 19.9188L67.014 23.2655L65.2566 21.5922Z" fill="#AFAFAF"/>
<path d="M55.1497 31.2112L58.6644 27.8644L60.4218 29.5378L56.907 32.8846L55.1497 31.2112Z" fill="#AFAFAF"/>
<path d="M55.1519 19.499L56.9092 17.8256L60.4239 21.1724L58.6666 22.8458L55.1519 19.499Z" fill="#AFAFAF"/>
<path d="M122.489 26.5387C120.434 26.5387 118.761 24.9461 118.761 22.989C118.761 21.0319 120.434 19.4392 122.489 19.4392C124.545 19.4392 126.217 21.0319 126.217 22.989C126.217 24.9461 124.545 26.5387 122.489 26.5387ZM122.489 21.8057C121.806 21.8057 121.247 22.3382 121.247 22.989C121.247 23.6398 121.806 24.1722 122.489 24.1722C123.173 24.1722 123.732 23.6398 123.732 22.989C123.732 22.3382 123.173 21.8057 122.489 21.8057Z" fill="#AFAFAF"/>
<path d="M118.11 41.8665L113.791 39.5308H113.169V52.3809L92.6658 61.5867L72.1622 52.3809V39.5308H71.5409L67.2215 41.8665C65.6657 42.7066 64.7064 44.2804 64.7064 45.9819V74.5788C64.7064 76.5383 66.3765 78.1286 68.4343 78.1286H116.897C118.955 78.1286 120.625 76.5383 120.625 74.5788V45.9819C120.625 44.278 119.664 42.7066 118.11 41.8665Z" fill="#F3F3F1"/>
<path d="M108.199 27.1302H77.1329C74.3991 27.1302 72.1623 29.2601 72.1623 31.8633V52.3809L92.6659 61.5866L113.17 52.3809V31.8633C113.17 29.2601 110.933 27.1302 108.199 27.1302ZM84.5887 49.7304L90.5037 43.2225H94.853L100.743 49.7304H84.5887ZM84.5887 42.6309L92.6659 34.3481L100.743 42.6309H84.5887Z" fill="#3F51B5"/>
<path d="M70.2983 74.5788V45.9819C70.2983 44.543 71.0115 43.2273 72.1622 42.3374V39.5308H71.5409L67.2215 41.8665C65.6657 42.7066 64.7064 44.2804 64.7064 45.9819V74.5788C64.7064 76.5383 66.3765 78.1286 68.4343 78.1286H74.0262C71.9684 78.1286 70.2983 76.5383 70.2983 74.5788Z" fill="#AFAFAF"/>
<path d="M77.7542 52.3809V31.8633C77.7542 29.2601 79.991 27.1302 82.7248 27.1302H77.1329C74.3991 27.1302 72.1623 29.2601 72.1623 31.8633V52.3809L92.6659 61.5866L95.4619 60.3323L77.7542 52.3809Z" fill="#FF9D00"/>
<path d="M92.6659 63.359C91.6196 63.359 90.5733 63.1318 89.6189 62.6775L63.8738 50.4189L65.539 47.243L91.2866 59.5016C92.1514 59.9134 93.1828 59.9134 94.0403 59.5016L119.79 47.243L121.455 50.4189L95.7079 62.6775C94.7585 63.1318 93.7122 63.359 92.6659 63.359Z" fill="#3F51B5"/>
<path d="M116.898 79.9033H68.4344C65.3527 79.9033 62.8425 77.5132 62.8425 74.5787V45.9818C62.8425 43.6461 64.1672 41.4784 66.3045 40.3212L70.6215 37.9878L72.4606 41.0761L68.1436 43.4095C67.1719 43.9348 66.5705 44.9193 66.5705 45.9818V74.5787C66.5705 75.5561 67.408 76.3536 68.4344 76.3536H116.898C117.924 76.3536 118.761 75.5561 118.761 74.5787V45.9818C118.761 44.9193 118.16 43.9348 117.188 43.4095L112.871 41.0761L114.71 37.9878L119.027 40.3212C121.165 41.476 122.489 43.6461 122.489 45.9818V74.5787C122.489 77.5132 119.979 79.9033 116.898 79.9033Z" fill="#3F51B5"/>
<path d="M100.743 44.4057H84.5887C83.8481 44.4057 83.1771 43.9868 82.8789 43.3408C82.5806 42.6947 82.7173 41.9398 83.2218 41.4215L91.299 33.1388C92.0073 32.417 93.322 32.417 94.0328 33.1388L102.11 41.4215C102.614 41.9398 102.749 42.6924 102.453 43.3408C102.157 43.9892 101.484 44.4057 100.743 44.4057ZM88.8634 40.8559H96.4709L92.6659 36.9559L88.8634 40.8559Z" fill="#3F51B5"/>
<path d="M100.743 51.5053H84.5887C83.858 51.5053 83.1945 51.1006 82.8913 50.4688C82.5905 49.8369 82.7024 49.0962 83.1771 48.5684L89.0921 42.0605L91.9129 44.3845L88.6646 47.9555H96.6747L93.4388 44.3797L96.2646 42.0629L102.155 48.5708C102.629 49.0962 102.739 49.8369 102.436 50.4688C102.132 51.1006 101.471 51.5053 100.743 51.5053Z" fill="#3F51B5"/>
<path d="M90.802 50.322H94.5299V54.4634H90.802V50.322Z" fill="#3F51B5"/>
<path d="M115.033 52.3809H111.306V31.8633C111.306 30.2327 109.911 28.9051 108.199 28.9051H77.1328C75.4205 28.9051 74.0262 30.2327 74.0262 31.8633V52.3809H70.2983V31.8633C70.2983 28.2733 73.3626 25.3553 77.1328 25.3553H108.199C111.969 25.3553 115.033 28.2733 115.033 31.8633V52.3809Z" fill="#3F51B5"/>
<path d="M154.709 7.46735L156.084 11.497H160.534L156.934 13.9874L158.309 18.0171L154.709 15.5266L151.109 18.0171L152.484 13.9874L148.884 11.497H153.334L154.709 7.46735Z" fill="#FFA83D" fill-opacity="0.39"/>
<path d="M20.7699 78.1287L22.1449 82.1583H26.5946L22.9947 84.6488L24.3698 88.6784L20.7699 86.1879L17.17 88.6784L18.5451 84.6488L14.9452 82.1583H19.3949L20.7699 78.1287Z" fill="#FFA83D" fill-opacity="0.39"/>
<path d="M14.6454 0L17.9335 9.6361H28.5741L19.9657 15.5915L23.2538 25.2276L14.6454 19.2722L6.03707 25.2276L9.32517 15.5915L0.716799 9.6361H11.3573L14.6454 0Z" fill="#FFA83D" fill-opacity="0.39"/>
<path d="M169.355 68.4597L172.643 78.0958H183.283L174.675 84.0513L177.963 93.6874L169.355 87.7319L160.746 93.6874L164.034 84.0513L155.426 78.0958H166.066L169.355 68.4597Z" fill="#FFA83D" fill-opacity="0.39"/>
</symbol><symbol id="eye" viewBox="0 0 24 24">
<path d="M15.5799 12C15.5799 13.98 13.9799 15.58 11.9999 15.58C10.0199 15.58 8.41992 13.98 8.41992 12C8.41992 10.02 10.0199 8.42004 11.9999 8.42004C13.9799 8.42004 15.5799 10.02 15.5799 12Z" stroke="currentColor" stroke-width="1.5" stroke-linecap="round" stroke-linejoin="round" fill="transparent"/>
<path d="M12.0001 20.27C15.5301 20.27 18.8201 18.19 21.1101 14.59C22.0101 13.18 22.0101 10.81 21.1101 9.39997C18.8201 5.79997 15.5301 3.71997 12.0001 3.71997C8.47009 3.71997 5.18009 5.79997 2.89009 9.39997C1.99009 10.81 1.99009 13.18 2.89009 14.59C5.18009 18.19 8.47009 20.27 12.0001 20.27Z" fill="transparent" stroke="#292D32" stroke-width="1.5" stroke-linecap="round" stroke-linejoin="round"/>
</symbol><symbol id="infoCircle" viewBox="0 0 13 14">
<path d="M6.49967 12.823C3.28759 12.823 0.676758 10.2121 0.676758 7.00004C0.676758 3.78796 3.28759 1.17712 6.49967 1.17712C9.71176 1.17712 12.3226 3.78796 12.3226 7.00004C12.3226 10.2121 9.71176 12.823 6.49967 12.823ZM6.49967 1.98962C3.73717 1.98962 1.48926 4.23754 1.48926 7.00004C1.48926 9.76254 3.73717 12.0105 6.49967 12.0105C9.26217 12.0105 11.5101 9.76254 11.5101 7.00004C11.5101 4.23754 9.26217 1.98962 6.49967 1.98962Z" fill="#E02B1D"/>
<path d="M6.5 7.94796C6.27792 7.94796 6.09375 7.76379 6.09375 7.54171V4.83337C6.09375 4.61129 6.27792 4.42712 6.5 4.42712C6.72208 4.42712 6.90625 4.61129 6.90625 4.83337V7.54171C6.90625 7.76379 6.72208 7.94796 6.5 7.94796Z" fill="#E02B1D"/>
<path d="M6.49967 9.70831C6.42926 9.70831 6.35884 9.69206 6.29384 9.66498C6.22884 9.63789 6.16926 9.59998 6.11509 9.55123C6.06634 9.49706 6.02842 9.44289 6.00134 9.37248C5.97426 9.30748 5.95801 9.23706 5.95801 9.16664C5.95801 9.09623 5.97426 9.02581 6.00134 8.96081C6.02842 8.89581 6.06634 8.83623 6.11509 8.78206C6.16926 8.73331 6.22884 8.69539 6.29384 8.66831C6.42384 8.61414 6.57551 8.61414 6.70551 8.66831C6.77051 8.69539 6.83009 8.73331 6.88426 8.78206C6.93301 8.83623 6.97092 8.89581 6.99801 8.96081C7.02509 9.02581 7.04134 9.09623 7.04134 9.16664C7.04134 9.23706 7.02509 9.30748 6.99801 9.37248C6.97092 9.44289 6.93301 9.49706 6.88426 9.55123C6.83009 9.59998 6.77051 9.63789 6.70551 9.66498C6.64051 9.69206 6.57009 9.70831 6.49967 9.70831Z" fill="#E02B1D"/>
</symbol><symbol id="invoice" viewBox="0 0 20 20">
    <path d="M13.1501 1.6665H6.85008C3.70008 1.6665 2.91675 2.50817 2.91675 5.8665V15.2498C2.91675 17.4665 4.13341 17.9915 5.60842 16.4082L5.61675 16.3998C6.30008 15.6748 7.34175 15.7332 7.93342 16.5248L8.77508 17.6498C9.45008 18.5415 10.5417 18.5415 11.2167 17.6498L12.0584 16.5248C12.6584 15.7248 13.7001 15.6665 14.3834 16.3998C15.8667 17.9832 17.0751 17.4582 17.0751 15.2415V5.8665C17.0834 2.50817 16.3001 1.6665 13.1501 1.6665ZM12.2917 8.95817H7.70842C7.36675 8.95817 7.08342 8.67484 7.08342 8.33317C7.08342 7.9915 7.36675 7.70817 7.70842 7.70817H12.2917C12.6334 7.70817 12.9167 7.9915 12.9167 8.33317C12.9167 8.67484 12.6334 8.95817 12.2917 8.95817Z" fill="currentColor"/>
</symbol><symbol id="thumbsUp" viewBox="0 0 54 54">
<path d="M31.7998 19.7999V10.2C31.7998 8.29041 31.0413 6.45907 29.691 5.10882C28.3407 3.75856 26.5094 3 24.5999 3L14.9999 24.5999V50.9997H42.0718C43.2293 51.0128 44.3526 50.6071 45.2347 49.8573C46.1168 49.1076 46.6981 48.0643 46.8717 46.9197L50.1837 25.3199C50.2881 24.6319 50.2417 23.9295 50.0477 23.2613C49.8537 22.593 49.5167 21.975 49.0602 21.4499C48.6036 20.9248 48.0383 20.5053 47.4035 20.2204C46.7687 19.9355 46.0795 19.792 45.3837 19.7999H31.7998ZM14.9999 50.9997H7.79997C6.52694 50.9997 5.30605 50.494 4.40588 49.5938C3.50571 48.6936 3 47.4728 3 46.1997V29.3998C3 28.1268 3.50571 26.9059 4.40588 26.0057C5.30605 25.1056 6.52694 24.5999 7.79997 24.5999H14.9999" fill="transparent" fill-opacity="0.14"/>
<path d="M14.9999 50.9997H7.79997C6.52694 50.9997 5.30605 50.494 4.40588 49.5938C3.50571 48.6936 3 47.4728 3 46.1997V29.3998C3 28.1268 3.50571 26.9059 4.40588 26.0057C5.30605 25.1056 6.52694 24.5999 7.79997 24.5999H14.9999M31.7998 19.7999V10.2C31.7998 8.29041 31.0413 6.45907 29.691 5.10882C28.3407 3.75856 26.5094 3 24.5999 3L14.9999 24.5999V50.9997H42.0718C43.2293 51.0128 44.3526 50.6071 45.2347 49.8573C46.1168 49.1076 46.6981 48.0643 46.8717 46.9197L50.1837 25.3199C50.2881 24.6319 50.2417 23.9295 50.0477 23.2613C49.8537 22.593 49.5167 21.975 49.0602 21.4499C48.6036 20.9248 48.0383 20.5053 47.4035 20.2204C46.7687 19.9355 46.0795 19.792 45.3837 19.7999H31.7998Z" fill="transparent" stroke="currentColor" stroke-width="6" stroke-linecap="round" stroke-linejoin="round"/>
</symbol></svg>