<?xml version="1.0" encoding="UTF-8"?><!DOCTYPE svg PUBLIC "-//W3C//DTD SVG 1.1//EN" "http://www.w3.org/Graphics/SVG/1.1/DTD/svg11.dtd"><svg xmlns="http://www.w3.org/2000/svg" xmlns:xlink="http://www.w3.org/1999/xlink"><defs>
<clipPath id="clip0_140_3026">
<rect width="20" height="24" fill="currentColor"/>
</clipPath>

<linearGradient id="paint0_linear_140_3014" x1="9.69432" y1="0.0668945" x2="9.69432" y2="13.9304" gradientUnits="userSpaceOnUse">
<stop stop-color="#ADADAD"/>
<stop offset="0.0001" stop-color="currentColor" stop-opacity="0"/>
</linearGradient>

<linearGradient id="paint0_linear_140_3002" x1="10.0709" y1="3.72266" x2="10.0709" y2="13.6782" gradientUnits="userSpaceOnUse">
<stop stop-color="#ADADAD"/>
<stop offset="0.0001" stop-color="white" stop-opacity="0"/>
</linearGradient>
</defs><symbol id="accountant" viewBox="0 0 20 24">
<g clip-path="url(#clip0_140_3026)">
<path fill-rule="evenodd" clip-rule="evenodd" d="M10.7501 1.2002C10.7501 0.785982 10.4143 0.450195 10.0001 0.450195C9.58588 0.450195 9.2501 0.785982 9.2501 1.2002V2.09882C8.88956 2.15922 8.51711 2.28518 8.19493 2.52599C7.75495 2.85484 7.48058 3.34485 7.41952 3.96178C7.37201 4.44179 7.41443 4.87735 7.56355 5.26361C7.71523 5.65649 7.96059 5.95477 8.25015 6.17848C8.77693 6.58547 9.46729 6.74791 9.95968 6.86376L9.99054 6.87103C10.5803 7.00993 10.9154 7.0977 11.1121 7.24633C11.1801 7.29772 11.2106 7.34332 11.2291 7.40242C11.2514 7.47377 11.2729 7.62257 11.2163 7.90035C11.1816 8.07043 11.0971 8.17741 10.9439 8.26441C10.7664 8.36522 10.4948 8.43456 10.144 8.44787C9.80073 8.46091 9.43197 8.41823 9.10233 8.34144C8.76263 8.2623 8.51802 8.15954 8.40096 8.08552C8.05088 7.86413 7.58761 7.96845 7.36621 8.31853C7.14482 8.66862 7.24915 9.13189 7.59923 9.35328C7.91043 9.55009 8.33238 9.70223 8.76199 9.80232C8.91776 9.8386 9.08151 9.86968 9.2501 9.89384V10.8002C9.2501 11.2144 9.58588 11.5502 10.0001 11.5502C10.4143 11.5502 10.7501 11.2144 10.7501 10.8002V9.89037C11.071 9.8346 11.3928 9.73453 11.6848 9.56869C12.1697 9.29325 12.5549 8.84264 12.686 8.20023C12.7765 7.75645 12.7804 7.33698 12.6605 6.95403C12.5367 6.55881 12.3001 6.26405 12.0165 6.04969C11.5439 5.69244 10.8973 5.54202 10.4317 5.43371L10.3345 5.41098C9.76967 5.27795 9.4019 5.17279 9.16723 4.99148C9.07052 4.91677 9.00553 4.83384 8.96289 4.72339C8.9177 4.60632 8.88185 4.41643 8.91223 4.10953C8.93494 3.88004 9.01507 3.78568 9.09295 3.72747C9.19676 3.64987 9.38092 3.57993 9.67 3.55753C10.2562 3.51212 10.9861 3.68388 11.4494 3.87086C11.8335 4.02589 12.2705 3.84018 12.4256 3.45608C12.5806 3.07197 12.3949 2.63491 12.0108 2.47988C11.6782 2.34567 11.2326 2.21074 10.7501 2.12882V1.2002Z" fill="currentColor"/>
<path d="M6.56074 17.2862H11.4673C12.0195 17.2862 12.485 16.8336 12.3954 16.2886C11.9589 13.6351 9.63314 14.9673 8.17159 14.2574C6.21047 13.3048 4.63051 12.6748 3.51801 13.1774C2.60446 13.59 1.75787 14.6454 1.13969 15.4688C0.946301 15.7263 0.891019 16.062 0.988443 16.369L2.40174 20.8225C2.53354 21.2378 2.91697 21.5203 3.35268 21.5266C4.77719 21.547 8.00759 21.6309 10.5051 21.9756C10.6197 21.9915 10.7347 21.9887 10.8478 21.9637C14.0333 21.2603 17.7734 19.0704 18.9436 18.0537C19.0433 17.9671 19.1219 17.8586 19.1462 17.7287C19.3174 16.8107 18.4095 15.1068 16.4943 16C14.436 16.96 14.9551 16.912 13.4516 17.68C12.2248 18.3067 10.8424 18.1503 10.197 17.8759C9.97568 17.7819 9.7516 17.6644 9.51282 17.6361L6.56074 17.2862Z" stroke="currentColor" stroke-width="1.5" stroke-linejoin="round"/>
</g>

</symbol><symbol id="arrowDown" viewBox="0 0 15 9">
<path fill-rule="evenodd" clip-rule="evenodd" d="M0.329514 1.18816C0.720039 0.797633 1.3532 0.797633 1.74373 1.18816L7.03662 6.48105L12.3295 1.18816C12.72 0.797633 13.3532 0.797633 13.7437 1.18816C14.1343 1.57868 14.1343 2.21185 13.7437 2.60237L7.74373 8.60237C7.3532 8.9929 6.72004 8.9929 6.32951 8.60237L0.329514 2.60237C-0.06101 2.21185 -0.06101 1.57868 0.329514 1.18816Z" fill="currentColor"/>
</symbol><symbol id="arrowForward" viewBox="0 0 24 24">
    <path d="M11.1161 6.88388C10.628 6.39573 10.628 5.60427 11.1161 5.11612C11.6043 4.62796 12.3957 4.62796 12.8839 5.11612L11.1161 6.88388ZM18 12L18.8839 11.1161C19.1183 11.3505 19.25 11.6685 19.25 12C19.25 12.3315 19.1183 12.6495 18.8839 12.8839L18 12ZM12.8839 18.8839C12.3957 19.372 11.6043 19.372 11.1161 18.8839C10.628 18.3957 10.628 17.6043 11.1161 17.1161L12.8839 18.8839ZM12.8839 5.11612L18.8839 11.1161L17.1161 12.8839L11.1161 6.88388L12.8839 5.11612ZM18.8839 12.8839L12.8839 18.8839L11.1161 17.1161L17.1161 11.1161L18.8839 12.8839Z" fill="currentColor"/>
    <path d="M6 12L17 12" stroke="currentColor" stroke-width="2.5" stroke-linecap="round" stroke-linejoin="round"/>
</symbol><symbol id="bank" viewBox="0 0 20 20">
<path d="M1.66675 18.3335H18.3334" stroke="currentColor" stroke-width="1.5" stroke-linecap="round" stroke-linejoin="round"/>
<path d="M2.5 6.66667L10 2.5L17.5 6.66667" stroke="currentColor" stroke-width="1.5" stroke-linecap="round" stroke-linejoin="round"/>
<path d="M3.33325 9.1665V15.8332" stroke="currentColor" stroke-width="1.5" stroke-linecap="round" stroke-linejoin="round"/>
<path d="M13.3333 9.1665V15.8332" stroke="currentColor" stroke-width="1.5" stroke-linecap="round" stroke-linejoin="round"/>
<path d="M16.6667 9.1665V15.8332" stroke="currentColor" stroke-width="1.5" stroke-linecap="round" stroke-linejoin="round"/>
<path d="M6.66675 9.1665V15.8332" stroke="currentColor" stroke-width="1.5" stroke-linecap="round" stroke-linejoin="round"/>
<path d="M10 9.1665V15.8332" stroke="currentColor" stroke-width="1.5" stroke-linecap="round" stroke-linejoin="round"/>
<path d="M2.5 15.8335H17.5" stroke="currentColor" stroke-width="1.5" stroke-linecap="round" stroke-linejoin="round"/>
</symbol><symbol id="category" viewBox="0 0 22 22">
<path d="M4.5835 9.16683H6.41683C8.25016 9.16683 9.16683 8.25016 9.16683 6.41683V4.5835C9.16683 2.75016 8.25016 1.8335 6.41683 1.8335H4.5835C2.75016 1.8335 1.8335 2.75016 1.8335 4.5835V6.41683C1.8335 8.25016 2.75016 9.16683 4.5835 9.16683Z" stroke="currentColor" stroke-width="1.5" stroke-miterlimit="10" stroke-linecap="round" stroke-linejoin="round"/>
<path d="M15.5835 9.16683H17.4168C19.2502 9.16683 20.1668 8.25016 20.1668 6.41683V4.5835C20.1668 2.75016 19.2502 1.8335 17.4168 1.8335H15.5835C13.7502 1.8335 12.8335 2.75016 12.8335 4.5835V6.41683C12.8335 8.25016 13.7502 9.16683 15.5835 9.16683Z" stroke="currentColor" stroke-width="1.5" stroke-miterlimit="10" stroke-linecap="round" stroke-linejoin="round"/>
<path d="M15.5835 20.1668H17.4168C19.2502 20.1668 20.1668 19.2502 20.1668 17.4168V15.5835C20.1668 13.7502 19.2502 12.8335 17.4168 12.8335H15.5835C13.7502 12.8335 12.8335 13.7502 12.8335 15.5835V17.4168C12.8335 19.2502 13.7502 20.1668 15.5835 20.1668Z" stroke="currentColor" stroke-width="1.5" stroke-miterlimit="10" stroke-linecap="round" stroke-linejoin="round"/>
<path d="M4.5835 20.1668H6.41683C8.25016 20.1668 9.16683 19.2502 9.16683 17.4168V15.5835C9.16683 13.7502 8.25016 12.8335 6.41683 12.8335H4.5835C2.75016 12.8335 1.8335 13.7502 1.8335 15.5835V17.4168C1.8335 19.2502 2.75016 20.1668 4.5835 20.1668Z" stroke="currentColor" stroke-width="1.5" stroke-miterlimit="10" stroke-linecap="round" stroke-linejoin="round"/>
</symbol><symbol id="chevronDown" viewBox="0 0 24 24">
<path fill-rule="evenodd" clip-rule="evenodd" d="M5.32951 8.18816C5.72004 7.79763 6.3532 7.79763 6.74373 8.18816L12.0366 13.4811L17.3295 8.18816C17.72 7.79763 18.3532 7.79763 18.7437 8.18816C19.1343 8.57868 19.1343 9.21185 18.7437 9.60237L12.7437 15.6024C12.3532 15.9929 11.72 15.9929 11.3295 15.6024L5.32951 9.60237C4.93899 9.21185 4.93899 8.57868 5.32951 8.18816Z" fill="currentColor"/>
</symbol><symbol id="coin" viewBox="0 0 20 20">
<circle cx="10.0003" cy="9.99984" r="8.33333" fill="#536DFE" stroke="#1F1A62" stroke-width="1.5" stroke-linejoin="round"/>
<path fill-rule="evenodd" clip-rule="evenodd" d="M10.7502 5C10.7502 4.58579 10.4144 4.25 10.0002 4.25C9.58594 4.25 9.25015 4.58579 9.25015 5V5.94687C8.79147 5.99673 8.31502 6.11695 7.90844 6.37019C7.40459 6.68402 7.04359 7.18332 6.96261 7.86514C6.90136 8.38077 6.95645 8.85198 7.14854 9.26662C7.34154 9.68323 7.64493 9.98243 7.97989 10.1981C8.59796 10.596 9.41067 10.7555 10.033 10.8776L10.0587 10.8826L10.1125 10.8932C10.4306 10.9556 10.7119 11.0107 10.967 11.0797C11.2377 11.1529 11.4279 11.2289 11.5557 11.3094C11.6726 11.3831 11.7109 11.4429 11.729 11.491C11.7497 11.5462 11.7783 11.6802 11.7104 11.9572C11.6744 12.1045 11.5758 12.2399 11.3221 12.36C11.0518 12.4879 10.6617 12.5659 10.1919 12.5807C9.23416 12.611 8.24039 12.3748 7.84982 12.169C7.48337 11.9759 7.02976 12.1164 6.83665 12.4828C6.64353 12.8493 6.78404 13.3029 7.15049 13.496C7.63683 13.7523 8.42404 13.9591 9.25015 14.043V15C9.25015 15.4142 9.58594 15.75 10.0002 15.75C10.4144 15.75 10.7502 15.4142 10.7502 15V14.0425C11.1696 13.9929 11.5895 13.8929 11.9638 13.7158C12.5077 13.4583 12.9963 13.0129 13.1674 12.3139C13.2836 11.8392 13.2902 11.3813 13.133 10.9632C12.9732 10.5381 12.6777 10.2434 12.3551 10.0402C12.0434 9.84388 11.6883 9.72082 11.3583 9.63162C11.0501 9.54831 10.7192 9.4835 10.4158 9.42408L10.4158 9.42408L10.3476 9.41072C9.64952 9.27369 9.13095 9.15518 8.7919 8.93688C8.64402 8.84168 8.55947 8.74379 8.50958 8.63609C8.45878 8.52643 8.41602 8.34614 8.45214 8.04206C8.47588 7.8422 8.55801 7.73277 8.70147 7.64341C8.87769 7.53365 9.16431 7.45085 9.56343 7.42508C10.3596 7.37368 11.3205 7.56552 11.9235 7.76834C12.3161 7.90039 12.7415 7.68917 12.8735 7.29657C13.0055 6.90397 12.7943 6.47865 12.4017 6.34661C11.9677 6.20063 11.378 6.05553 10.7502 5.97684V5Z" fill="currentColor"/>
</symbol><symbol id="envelopeStars" viewBox="0 0 184 107">
<ellipse opacity="0.3" cx="92.6657" cy="53.7535" rx="55.919" ry="53.2464" fill="#3F51B5"/>
<path d="M68.7498 21.0176C85.9406 21.0176 97.7457 12.5384 106.029 12.5384C114.313 12.5384 131.71 17.0726 131.71 53.3583C131.71 89.644 108.306 94.9686 99.1946 94.9686C56.5297 94.971 38.3051 21.0176 68.7498 21.0176Z" fill="#EFEFEF"/>
<path d="M65.2566 21.5922L68.7713 18.2454L70.5287 19.9188L67.014 23.2655L65.2566 21.5922Z" fill="#AFAFAF"/>
<path d="M55.1497 31.2112L58.6644 27.8644L60.4218 29.5378L56.907 32.8846L55.1497 31.2112Z" fill="#AFAFAF"/>
<path d="M55.1519 19.499L56.9092 17.8256L60.4239 21.1724L58.6666 22.8458L55.1519 19.499Z" fill="#AFAFAF"/>
<path d="M122.489 26.5387C120.434 26.5387 118.761 24.9461 118.761 22.989C118.761 21.0319 120.434 19.4392 122.489 19.4392C124.545 19.4392 126.217 21.0319 126.217 22.989C126.217 24.9461 124.545 26.5387 122.489 26.5387ZM122.489 21.8057C121.806 21.8057 121.247 22.3382 121.247 22.989C121.247 23.6398 121.806 24.1722 122.489 24.1722C123.173 24.1722 123.732 23.6398 123.732 22.989C123.732 22.3382 123.173 21.8057 122.489 21.8057Z" fill="#AFAFAF"/>
<path d="M118.11 41.8665L113.791 39.5308H113.169V52.3809L92.6658 61.5867L72.1622 52.3809V39.5308H71.5409L67.2215 41.8665C65.6657 42.7066 64.7064 44.2804 64.7064 45.9819V74.5788C64.7064 76.5383 66.3765 78.1286 68.4343 78.1286H116.897C118.955 78.1286 120.625 76.5383 120.625 74.5788V45.9819C120.625 44.278 119.664 42.7066 118.11 41.8665Z" fill="#F3F3F1"/>
<path d="M108.199 27.1302H77.1329C74.3991 27.1302 72.1623 29.2601 72.1623 31.8633V52.3809L92.6659 61.5866L113.17 52.3809V31.8633C113.17 29.2601 110.933 27.1302 108.199 27.1302ZM84.5887 49.7304L90.5037 43.2225H94.853L100.743 49.7304H84.5887ZM84.5887 42.6309L92.6659 34.3481L100.743 42.6309H84.5887Z" fill="#3F51B5"/>
<path d="M70.2983 74.5788V45.9819C70.2983 44.543 71.0115 43.2273 72.1622 42.3374V39.5308H71.5409L67.2215 41.8665C65.6657 42.7066 64.7064 44.2804 64.7064 45.9819V74.5788C64.7064 76.5383 66.3765 78.1286 68.4343 78.1286H74.0262C71.9684 78.1286 70.2983 76.5383 70.2983 74.5788Z" fill="#AFAFAF"/>
<path d="M77.7542 52.3809V31.8633C77.7542 29.2601 79.991 27.1302 82.7248 27.1302H77.1329C74.3991 27.1302 72.1623 29.2601 72.1623 31.8633V52.3809L92.6659 61.5866L95.4619 60.3323L77.7542 52.3809Z" fill="#FF9D00"/>
<path d="M92.6659 63.359C91.6196 63.359 90.5733 63.1318 89.6189 62.6775L63.8738 50.4189L65.539 47.243L91.2866 59.5016C92.1514 59.9134 93.1828 59.9134 94.0403 59.5016L119.79 47.243L121.455 50.4189L95.7079 62.6775C94.7585 63.1318 93.7122 63.359 92.6659 63.359Z" fill="#3F51B5"/>
<path d="M116.898 79.9033H68.4344C65.3527 79.9033 62.8425 77.5132 62.8425 74.5787V45.9818C62.8425 43.6461 64.1672 41.4784 66.3045 40.3212L70.6215 37.9878L72.4606 41.0761L68.1436 43.4095C67.1719 43.9348 66.5705 44.9193 66.5705 45.9818V74.5787C66.5705 75.5561 67.408 76.3536 68.4344 76.3536H116.898C117.924 76.3536 118.761 75.5561 118.761 74.5787V45.9818C118.761 44.9193 118.16 43.9348 117.188 43.4095L112.871 41.0761L114.71 37.9878L119.027 40.3212C121.165 41.476 122.489 43.6461 122.489 45.9818V74.5787C122.489 77.5132 119.979 79.9033 116.898 79.9033Z" fill="#3F51B5"/>
<path d="M100.743 44.4057H84.5887C83.8481 44.4057 83.1771 43.9868 82.8789 43.3408C82.5806 42.6947 82.7173 41.9398 83.2218 41.4215L91.299 33.1388C92.0073 32.417 93.322 32.417 94.0328 33.1388L102.11 41.4215C102.614 41.9398 102.749 42.6924 102.453 43.3408C102.157 43.9892 101.484 44.4057 100.743 44.4057ZM88.8634 40.8559H96.4709L92.6659 36.9559L88.8634 40.8559Z" fill="#3F51B5"/>
<path d="M100.743 51.5053H84.5887C83.858 51.5053 83.1945 51.1006 82.8913 50.4688C82.5905 49.8369 82.7024 49.0962 83.1771 48.5684L89.0921 42.0605L91.9129 44.3845L88.6646 47.9555H96.6747L93.4388 44.3797L96.2646 42.0629L102.155 48.5708C102.629 49.0962 102.739 49.8369 102.436 50.4688C102.132 51.1006 101.471 51.5053 100.743 51.5053Z" fill="#3F51B5"/>
<path d="M90.802 50.322H94.5299V54.4634H90.802V50.322Z" fill="#3F51B5"/>
<path d="M115.033 52.3809H111.306V31.8633C111.306 30.2327 109.911 28.9051 108.199 28.9051H77.1328C75.4205 28.9051 74.0262 30.2327 74.0262 31.8633V52.3809H70.2983V31.8633C70.2983 28.2733 73.3626 25.3553 77.1328 25.3553H108.199C111.969 25.3553 115.033 28.2733 115.033 31.8633V52.3809Z" fill="#3F51B5"/>
<path d="M154.709 7.46735L156.084 11.497H160.534L156.934 13.9874L158.309 18.0171L154.709 15.5266L151.109 18.0171L152.484 13.9874L148.884 11.497H153.334L154.709 7.46735Z" fill="#FFA83D" fill-opacity="0.39"/>
<path d="M20.7699 78.1287L22.1449 82.1583H26.5946L22.9947 84.6488L24.3698 88.6784L20.7699 86.1879L17.17 88.6784L18.5451 84.6488L14.9452 82.1583H19.3949L20.7699 78.1287Z" fill="#FFA83D" fill-opacity="0.39"/>
<path d="M14.6454 0L17.9335 9.6361H28.5741L19.9657 15.5915L23.2538 25.2276L14.6454 19.2722L6.03707 25.2276L9.32517 15.5915L0.716799 9.6361H11.3573L14.6454 0Z" fill="#FFA83D" fill-opacity="0.39"/>
<path d="M169.355 68.4597L172.643 78.0958H183.283L174.675 84.0513L177.963 93.6874L169.355 87.7319L160.746 93.6874L164.034 84.0513L155.426 78.0958H166.066L169.355 68.4597Z" fill="#FFA83D" fill-opacity="0.39"/>
</symbol><symbol id="expense" viewBox="0 0 20 20">
<path d="M9.69432 13.9304C13.5035 13.9304 16.5915 10.8269 16.5915 6.99863C16.5915 3.17034 13.5035 0.0668945 9.69432 0.0668945C5.8851 0.0668945 2.79712 3.17034 2.79712 6.99863C2.79712 10.8269 5.8851 13.9304 9.69432 13.9304Z" fill="url(#paint0_linear_140_3014)"/>
<path d="M15.969 5.92807C15.0671 6.20612 14.1154 6.48417 13.3822 6.67602L13.1858 5.88357L13.5123 5.81406V3.459H14.1956V5.64167L14.4944 5.56383V2.93627H13.551V0.589542H15.8501V2.93627H15.2331V3.7009H15.8501V4.43495H15.2331V5.37752L15.8667 5.19958L15.969 5.92807ZM14.2565 2.22447H15.0865V1.30134H14.2565V2.22447ZM18.3622 4.1986C18.6748 5.09948 19.2143 5.8669 20 6.24227C19.7711 6.44282 19.575 6.67832 19.419 6.94015C18.7483 6.51892 18.2288 5.89357 17.9361 5.15509C17.5945 5.94733 16.9929 6.59797 16.2319 6.99855C16.0656 6.76004 15.8694 6.54415 15.6481 6.35626C16.0913 6.16528 16.4818 5.86924 16.7863 5.49348C17.0908 5.11773 17.3002 4.67343 17.3966 4.1986H15.9746V3.4006H17.4934C17.51 3.21431 17.51 3.04471 17.51 2.86676V2.31066H16.9124C16.8261 2.62616 16.7074 2.93179 16.5583 3.22265C16.3413 3.07436 16.1159 2.93883 15.8833 2.81671C16.2026 2.12276 16.3903 1.37497 16.4366 0.611791L17.2085 0.734132C17.1753 1.01218 17.1393 1.26241 17.0895 1.52378H17.5156V0.383789H18.3456V1.52378H19.668V2.31066H18.3456V2.86676C18.3456 3.04471 18.3456 3.21431 18.3317 3.4006H19.8091V4.1986H18.3622Z" fill="currentColor"/>
<path d="M0 19.3218H19.8838" stroke="currentColor" stroke-miterlimit="10"/>
<path d="M5.00788 8.72217H1.9729V19.3214H5.00788V8.72217Z" stroke="currentColor" stroke-miterlimit="10"/>
<path d="M10.6075 12.8931H7.57251V19.3215H10.6075V12.8931Z" stroke="currentColor" stroke-miterlimit="10"/>
<path d="M16.5916 14.9092H13.5566V19.3218H16.5916V14.9092Z" stroke="currentColor" stroke-miterlimit="10"/>
<path d="M1.97559 2.9165L6.80611 6.99825L11.7169 7.14562L16.9569 12.156" stroke="currentColor" stroke-miterlimit="10"/>

</symbol><symbol id="eye" viewBox="0 0 24 24">
<path d="M15.5799 12C15.5799 13.98 13.9799 15.58 11.9999 15.58C10.0199 15.58 8.41992 13.98 8.41992 12C8.41992 10.02 10.0199 8.42004 11.9999 8.42004C13.9799 8.42004 15.5799 10.02 15.5799 12Z" stroke="currentColor" stroke-width="1.5" stroke-linecap="round" stroke-linejoin="round" fill="transparent"/>
<path d="M12.0001 20.27C15.5301 20.27 18.8201 18.19 21.1101 14.59C22.0101 13.18 22.0101 10.81 21.1101 9.39997C18.8201 5.79997 15.5301 3.71997 12.0001 3.71997C8.47009 3.71997 5.18009 5.79997 2.89009 9.39997C1.99009 10.81 1.99009 13.18 2.89009 14.59C5.18009 18.19 8.47009 20.27 12.0001 20.27Z" fill="transparent" stroke="#292D32" stroke-width="1.5" stroke-linecap="round" stroke-linejoin="round"/>
</symbol><symbol id="hamburger" viewBox="0 0 30 24">
<path d="M20 6L4 6" stroke="currentColor" stroke-width="2" stroke-linecap="round"/>
<path d="M20 12L4 12" stroke="currentColor" stroke-width="2" stroke-linecap="round"/>
<path d="M20 18H4" stroke="currentColor" stroke-width="2" stroke-linecap="round"/>
</symbol><symbol id="hrm" viewBox="0 0 20 20">
<path d="M7.63338 9.05817C7.55005 9.04984 7.45005 9.04984 7.35838 9.05817C5.37505 8.9915 3.80005 7.3665 3.80005 5.3665C3.80005 3.32484 5.45005 1.6665 7.50005 1.6665C9.54172 1.6665 11.2 3.32484 11.2 5.3665C11.1917 7.3665 9.61672 8.9915 7.63338 9.05817Z" stroke="currentColor" stroke-width="1.5" stroke-linecap="round" stroke-linejoin="round"/>
<path d="M13.675 3.3335C15.2916 3.3335 16.5916 4.64183 16.5916 6.25016C16.5916 7.82516 15.3417 9.1085 13.7833 9.16683C13.7167 9.1585 13.6417 9.1585 13.5667 9.16683" stroke="currentColor" stroke-width="1.5" stroke-linecap="round" stroke-linejoin="round"/>
<path d="M3.4666 12.1335C1.44993 13.4835 1.44993 15.6835 3.4666 17.0252C5.75827 18.5585 9.5166 18.5585 11.8083 17.0252C13.8249 15.6752 13.8249 13.4752 11.8083 12.1335C9.52494 10.6085 5.7666 10.6085 3.4666 12.1335Z" stroke="currentColor" stroke-width="1.5" stroke-linecap="round" stroke-linejoin="round"/>
<path d="M15.2834 16.6665C15.8834 16.5415 16.4501 16.2998 16.9168 15.9415C18.2168 14.9665 18.2168 13.3582 16.9168 12.3832C16.4584 12.0332 15.9001 11.7998 15.3084 11.6665" stroke="currentColor" stroke-width="1.5" stroke-linecap="round" stroke-linejoin="round"/>
</symbol><symbol id="infoCircle" viewBox="0 0 13 14">
<path d="M6.49967 12.823C3.28759 12.823 0.676758 10.2121 0.676758 7.00004C0.676758 3.78796 3.28759 1.17712 6.49967 1.17712C9.71176 1.17712 12.3226 3.78796 12.3226 7.00004C12.3226 10.2121 9.71176 12.823 6.49967 12.823ZM6.49967 1.98962C3.73717 1.98962 1.48926 4.23754 1.48926 7.00004C1.48926 9.76254 3.73717 12.0105 6.49967 12.0105C9.26217 12.0105 11.5101 9.76254 11.5101 7.00004C11.5101 4.23754 9.26217 1.98962 6.49967 1.98962Z" fill="#E02B1D"/>
<path d="M6.5 7.94796C6.27792 7.94796 6.09375 7.76379 6.09375 7.54171V4.83337C6.09375 4.61129 6.27792 4.42712 6.5 4.42712C6.72208 4.42712 6.90625 4.61129 6.90625 4.83337V7.54171C6.90625 7.76379 6.72208 7.94796 6.5 7.94796Z" fill="#E02B1D"/>
<path d="M6.49967 9.70831C6.42926 9.70831 6.35884 9.69206 6.29384 9.66498C6.22884 9.63789 6.16926 9.59998 6.11509 9.55123C6.06634 9.49706 6.02842 9.44289 6.00134 9.37248C5.97426 9.30748 5.95801 9.23706 5.95801 9.16664C5.95801 9.09623 5.97426 9.02581 6.00134 8.96081C6.02842 8.89581 6.06634 8.83623 6.11509 8.78206C6.16926 8.73331 6.22884 8.69539 6.29384 8.66831C6.42384 8.61414 6.57551 8.61414 6.70551 8.66831C6.77051 8.69539 6.83009 8.73331 6.88426 8.78206C6.93301 8.83623 6.97092 8.89581 6.99801 8.96081C7.02509 9.02581 7.04134 9.09623 7.04134 9.16664C7.04134 9.23706 7.02509 9.30748 6.99801 9.37248C6.97092 9.44289 6.93301 9.49706 6.88426 9.55123C6.83009 9.59998 6.77051 9.63789 6.70551 9.66498C6.64051 9.69206 6.57009 9.70831 6.49967 9.70831Z" fill="#E02B1D"/>
</symbol><symbol id="invoice" viewBox="0 0 20 20">
    <path d="M13.1501 1.6665H6.85008C3.70008 1.6665 2.91675 2.50817 2.91675 5.8665V15.2498C2.91675 17.4665 4.13341 17.9915 5.60842 16.4082L5.61675 16.3998C6.30008 15.6748 7.34175 15.7332 7.93342 16.5248L8.77508 17.6498C9.45008 18.5415 10.5417 18.5415 11.2167 17.6498L12.0584 16.5248C12.6584 15.7248 13.7001 15.6665 14.3834 16.3998C15.8667 17.9832 17.0751 17.4582 17.0751 15.2415V5.8665C17.0834 2.50817 16.3001 1.6665 13.1501 1.6665ZM12.2917 8.95817H7.70842C7.36675 8.95817 7.08342 8.67484 7.08342 8.33317C7.08342 7.9915 7.36675 7.70817 7.70842 7.70817H12.2917C12.6334 7.70817 12.9167 7.9915 12.9167 8.33317C12.9167 8.67484 12.6334 8.95817 12.2917 8.95817Z" fill="currentColor"/>
</symbol><symbol id="logout" viewBox="0 0 24 24">
<path d="M11.6799 14.62L14.2399 12.06L11.6799 9.5" stroke="currentColor" stroke-width="1.5" stroke-miterlimit="10" stroke-linecap="round" stroke-linejoin="round"/>
<path d="M4 12.0601H14.17" stroke="currentColor" stroke-width="1.5" stroke-miterlimit="10" stroke-linecap="round" stroke-linejoin="round"/>
<path d="M12 4C16.42 4 20 7 20 12C20 17 16.42 20 12 20" stroke="currentColor" stroke-width="1.5" stroke-miterlimit="10" stroke-linecap="round" stroke-linejoin="round"/>
</symbol><symbol id="notification" viewBox="0 0 24 24">
<path d="M12.02 2.90991C8.70997 2.90991 6.01997 5.59991 6.01997 8.90991V11.7999C6.01997 12.4099 5.75997 13.3399 5.44997 13.8599L4.29997 15.7699C3.58997 16.9499 4.07997 18.2599 5.37997 18.6999C9.68997 20.1399 14.34 20.1399 18.65 18.6999C19.86 18.2999 20.39 16.8699 19.73 15.7699L18.58 13.8599C18.28 13.3399 18.02 12.4099 18.02 11.7999V8.90991C18.02 5.60991 15.32 2.90991 12.02 2.90991Z" stroke="currentColor" stroke-width="1.5" stroke-miterlimit="10" stroke-linecap="round"/>
<path d="M13.87 3.19994C13.56 3.10994 13.24 3.03994 12.91 2.99994C11.95 2.87994 11.03 2.94994 10.17 3.19994C10.46 2.45994 11.18 1.93994 12.02 1.93994C12.86 1.93994 13.58 2.45994 13.87 3.19994Z" stroke="currentColor" stroke-width="1.5" stroke-miterlimit="10" stroke-linecap="round" stroke-linejoin="round"/>
<path d="M15.02 19.0601C15.02 20.7101 13.67 22.0601 12.02 22.0601C11.2 22.0601 10.44 21.7201 9.90002 21.1801C9.36002 20.6401 9.02002 19.8801 9.02002 19.0601" stroke="currentColor" stroke-width="1.5" stroke-miterlimit="10"/>
</symbol><symbol id="report" viewBox="0 0 20 20">
<path d="M17.6684 3.72266H2.47339V13.6782H17.6684V3.72266Z" fill="url(#paint0_linear_140_3002)"/>
<path d="M12.8494 4.29808H16.3858C16.5309 4.28796 16.6668 4.22308 16.7661 4.11653C16.8653 4.00998 16.9205 3.8697 16.9205 3.72399C16.9205 3.57829 16.8653 3.438 16.7661 3.33146C16.6668 3.22491 16.5309 3.16002 16.3858 3.1499H12.8494C12.7043 3.16002 12.5684 3.22491 12.4691 3.33146C12.3699 3.438 12.3147 3.57829 12.3147 3.72399C12.3147 3.8697 12.3699 4.00998 12.4691 4.11653C12.5684 4.22308 12.7043 4.28796 12.8494 4.29808Z" fill="currentColor"/>
<path d="M9.81813 7.33365H16.3858C16.5309 7.32353 16.6668 7.25865 16.766 7.1521C16.8653 7.04555 16.9205 6.90527 16.9205 6.75956C16.9205 6.61386 16.8653 6.47357 16.766 6.36702C16.6668 6.26048 16.5309 6.19559 16.3858 6.18547H9.81813C9.7395 6.17999 9.66058 6.19077 9.58629 6.21713C9.51199 6.2435 9.44392 6.2849 9.38628 6.33875C9.32864 6.39259 9.28268 6.45774 9.25126 6.53013C9.21983 6.60253 9.20361 6.68062 9.20361 6.75956C9.20361 6.8385 9.21983 6.9166 9.25126 6.989C9.28268 7.0614 9.32864 7.12654 9.38628 7.18039C9.44392 7.23423 9.51199 7.27563 9.58629 7.302C9.66058 7.32837 9.7395 7.33914 9.81813 7.33365Z" fill="currentColor"/>
<path d="M4.00854 7.33413H7.03976C7.26062 7.33413 7.47243 7.24626 7.62861 7.08985C7.78478 6.93344 7.87252 6.7213 7.87252 6.5001V3.97022C7.8716 3.75142 7.78486 3.54174 7.63102 3.3864C7.47591 3.23232 7.26655 3.14545 7.04809 3.14453H4.00854C3.78768 3.14453 3.57586 3.2324 3.41969 3.38881C3.26352 3.54522 3.17578 3.75736 3.17578 3.97856V6.50844C3.17798 6.72819 3.26668 6.93819 3.42261 7.0928C3.57855 7.24741 3.78911 7.33414 4.00854 7.33413ZM4.33609 4.29827H6.72609V6.18595H4.33609V4.29827Z" fill="currentColor"/>
<path d="M16.3997 13.7864H13.66L12.8272 12.5298C12.7757 12.4521 12.7061 12.3883 12.6243 12.3437C12.5426 12.2991 12.4512 12.2752 12.3581 12.274C12.266 12.2711 12.1747 12.2912 12.0923 12.3324C12.01 12.3737 11.9391 12.4348 11.8862 12.5103L9.8876 15.2904L7.29496 10.542C7.242 10.4435 7.16136 10.3626 7.063 10.3094C6.96465 10.2563 6.8529 10.2331 6.74156 10.2429C6.63023 10.2527 6.52419 10.2949 6.43655 10.3644C6.34892 10.4338 6.28353 10.5275 6.24847 10.6338L5.36852 13.2721H3.76131C3.65206 13.2617 3.54209 13.2822 3.44393 13.3314C3.34577 13.3805 3.26338 13.4563 3.20614 13.5501C3.15178 13.6403 3.12305 13.7436 3.12305 13.8489C3.12305 13.9543 3.15178 14.0576 3.20614 14.1478C3.26046 14.2391 3.33909 14.3135 3.43322 14.3626C3.52734 14.4117 3.63325 14.4336 3.7391 14.4258H5.7738C5.89602 14.4285 6.01588 14.3919 6.11579 14.3213C6.21571 14.2508 6.29042 14.15 6.32896 14.0338L6.923 12.2546L9.32411 16.6499C9.36911 16.736 9.43585 16.8087 9.51767 16.8609C9.59949 16.9131 9.69354 16.9429 9.79045 16.9474H9.82653C9.91837 16.9495 10.0093 16.9288 10.0912 16.887C10.1731 16.8453 10.2433 16.7839 10.2957 16.7083L12.3359 13.8531L12.8911 14.6871C12.9431 14.7656 13.0136 14.8299 13.0964 14.8746C13.1792 14.9192 13.2717 14.9426 13.3657 14.9429H16.3997C16.509 14.9536 16.6191 14.9332 16.7173 14.8841C16.8156 14.8349 16.8979 14.7589 16.9549 14.6649C17.01 14.5748 17.0392 14.4712 17.0392 14.3655C17.0392 14.2598 17.01 14.1562 16.9548 14.0662C16.8996 13.9761 16.8207 13.9031 16.7266 13.8552C16.6326 13.8072 16.5271 13.7863 16.4219 13.7947L16.3997 13.7864Z" fill="currentColor"/>
<path d="M18.8452 10.7949V17.6395C18.8445 17.9568 18.7181 18.2609 18.4938 18.485C18.2696 18.7091 17.9657 18.8349 17.6488 18.8349H2.49272C2.1759 18.8349 1.87201 18.7091 1.64772 18.485C1.42344 18.2609 1.29706 17.9568 1.29633 17.6395V2.4574C1.29706 2.13984 1.42334 1.83549 1.64755 1.61094C1.87176 1.38639 2.17564 1.25992 2.49272 1.25918H17.6599C17.977 1.25992 18.2809 1.38639 18.5051 1.61094C18.7293 1.83549 18.8556 2.13984 18.8563 2.4574V4.29783H20V1.95142C20.0007 1.7099 19.9538 1.47061 19.8618 1.24732C19.7699 1.02404 19.6347 0.821164 19.4642 0.650377C19.2937 0.479589 19.0911 0.344262 18.8682 0.252172C18.6452 0.160082 18.4063 0.113044 18.1652 0.113778H1.98751C1.74633 0.113413 1.50743 0.160681 1.2845 0.252868C1.06157 0.345054 0.858969 0.480353 0.688295 0.65103C0.51762 0.821707 0.382219 1.02441 0.289836 1.24754C0.197454 1.47068 0.149902 1.70987 0.149902 1.95142V18.1455C0.150638 18.6331 0.344569 19.1005 0.689108 19.4451C1.03365 19.7896 1.50063 19.9831 1.98751 19.9831H18.154C18.395 19.9831 18.6336 19.9356 18.8562 19.8432C19.0788 19.7509 19.2811 19.6155 19.4515 19.4449C19.6219 19.2742 19.757 19.0717 19.8492 18.8487C19.9414 18.6258 19.9889 18.3868 19.9889 18.1455V10.7949H18.8452Z" fill="currentColor"/>
<path d="M19.9667 5.62402H18.8452V8.32906H19.9667V5.62402Z" fill="currentColor"/>

</symbol><symbol id="sales" viewBox="0 0 22 22">
<ellipse cx="12.3751" cy="11.0002" rx="9.16667" ry="7.79167" transform="rotate(90 12.3751 11.0002)" stroke="currentColor" stroke-width="1.5" stroke-linejoin="round"/>
<path d="M12.5054 20.1668C12.48 20.1668 8.91986 20.1667 8.89458 20.1663C4.98776 20.114 1.83325 16.0302 1.83325 11.0002C1.83325 6.00272 4.94697 1.93932 8.81866 1.83553C8.86915 1.83417 14.2372 1.8335 12.48 1.8335" stroke="currentColor" stroke-width="1.5" stroke-linecap="round" stroke-linejoin="round"/>
<line x1="3.83325" y1="9" x2="2.58325" y2="9" stroke="currentColor" stroke-width="1.5" stroke-linecap="round" stroke-linejoin="round"/>
<line x1="3.83325" y1="12.6665" x2="2.58325" y2="12.6665" stroke="currentColor" stroke-width="1.5" stroke-linecap="round" stroke-linejoin="round"/>
<line x1="5.66675" y1="16.3335" x2="3.50008" y2="16.3335" stroke="currentColor" stroke-width="1.5" stroke-linecap="round" stroke-linejoin="round"/>
<line x1="5.66675" y1="5.3335" x2="3.50008" y2="5.3335" stroke="currentColor" stroke-width="1.5" stroke-linecap="round" stroke-linejoin="round"/>
<path fill-rule="evenodd" clip-rule="evenodd" d="M13.125 6.7832C13.125 6.36899 12.7892 6.0332 12.375 6.0332C11.9608 6.0332 11.625 6.36899 11.625 6.7832V7.625C11.2049 7.67492 10.7689 7.78913 10.3935 8.02295C9.91067 8.32368 9.56407 8.8032 9.48649 9.45636C9.42841 9.94535 9.48032 10.3954 9.66451 10.793C9.84962 11.1926 10.1404 11.4789 10.4597 11.6844C11.0455 12.0616 11.8132 12.2122 12.3926 12.3259L12.4203 12.3313L12.47 12.341C12.7681 12.3995 13.0295 12.4508 13.2662 12.5148C13.5175 12.5827 13.6899 12.6522 13.8035 12.7238C13.9061 12.7884 13.9335 12.8367 13.9458 12.8694C13.9608 12.9093 13.9886 13.024 13.9268 13.2765C13.8974 13.3964 13.818 13.5129 13.5902 13.6207C13.3458 13.7364 12.9884 13.8087 12.5527 13.8225C11.6632 13.8506 10.7429 13.6306 10.3872 13.4431C10.0207 13.25 9.56712 13.3905 9.374 13.7569C9.18089 14.1234 9.3214 14.577 9.68784 14.7701C10.1405 15.0086 10.8635 15.2006 11.625 15.2823V16.1332C11.625 16.5474 11.9608 16.8832 12.375 16.8832C12.7892 16.8832 13.125 16.5474 13.125 16.1332V15.2811C13.5068 15.2325 13.8889 15.1388 14.2319 14.9765C14.7498 14.7313 15.2193 14.3048 15.3837 13.6333C15.494 13.1831 15.5012 12.7443 15.3499 12.3417C15.1958 11.9319 14.9112 11.6487 14.6029 11.4545C14.3055 11.2672 13.9681 11.1506 13.6576 11.0667C13.3677 10.9883 13.0566 10.9274 12.7733 10.8719L12.7093 10.8594C12.0542 10.7308 11.5793 10.6213 11.2717 10.4232C11.1395 10.3381 11.0676 10.2531 11.0256 10.1625C10.9826 10.0698 10.9431 9.91071 10.976 9.63328C10.9964 9.46208 11.0641 9.37243 11.1865 9.29617C11.3417 9.19952 11.6006 9.12314 11.9698 9.0993C12.7061 9.05177 13.598 9.22951 14.1578 9.41781C14.5504 9.54986 14.9757 9.33864 15.1078 8.94603C15.2398 8.55343 15.0286 8.12812 14.636 7.99607C14.2377 7.86211 13.6999 7.72883 13.125 7.65365V6.7832Z" fill="currentColor"/>
</symbol><symbol id="setting" viewBox="0 0 24 24">
<path d="M12 15C13.6569 15 15 13.6569 15 12C15 10.3431 13.6569 9 12 9C10.3431 9 9 10.3431 9 12C9 13.6569 10.3431 15 12 15Z" stroke="currentColor" stroke-width="1.5" stroke-miterlimit="10" stroke-linecap="round" stroke-linejoin="round"/>
<path d="M2 12.8799V11.1199C2 10.0799 2.85 9.21994 3.9 9.21994C5.71 9.21994 6.45 7.93994 5.54 6.36994C5.02 5.46994 5.33 4.29994 6.24 3.77994L7.97 2.78994C8.76 2.31994 9.78 2.59994 10.25 3.38994L10.36 3.57994C11.26 5.14994 12.74 5.14994 13.65 3.57994L13.76 3.38994C14.23 2.59994 15.25 2.31994 16.04 2.78994L17.77 3.77994C18.68 4.29994 18.99 5.46994 18.47 6.36994C17.56 7.93994 18.3 9.21994 20.11 9.21994C21.15 9.21994 22.01 10.0699 22.01 11.1199V12.8799C22.01 13.9199 21.16 14.7799 20.11 14.7799C18.3 14.7799 17.56 16.0599 18.47 17.6299C18.99 18.5399 18.68 19.6999 17.77 20.2199L16.04 21.2099C15.25 21.6799 14.23 21.3999 13.76 20.6099L13.65 20.4199C12.75 18.8499 11.27 18.8499 10.36 20.4199L10.25 20.6099C9.78 21.3999 8.76 21.6799 7.97 21.2099L6.24 20.2199C5.33 19.6999 5.02 18.5299 5.54 17.6299C6.45 16.0599 5.71 14.7799 3.9 14.7799C2.85 14.7799 2 13.9199 2 12.8799Z" stroke="currentColor" stroke-width="1.5" stroke-miterlimit="10" stroke-linecap="round" stroke-linejoin="round"/>
</symbol><symbol id="tax" viewBox="0 0 22 22">
<path d="M4.58325 19.25V4.58333C4.58325 4.0971 4.77641 3.63079 5.12022 3.28697C5.46404 2.94315 5.93035 2.75 6.41659 2.75H15.5833C16.0695 2.75 16.5358 2.94315 16.8796 3.28697C17.2234 3.63079 17.4166 4.0971 17.4166 4.58333V19.25L14.6666 17.4167L12.8333 19.25L10.9999 17.4167L9.16659 19.25L7.33325 17.4167L4.58325 19.25Z" stroke="currentColor" stroke-width="1.5" stroke-linecap="round" stroke-linejoin="round"/>
<path fill-rule="evenodd" clip-rule="evenodd" d="M11.7502 5.68311C11.7502 5.26889 11.4144 4.93311 11.0002 4.93311C10.586 4.93311 10.2502 5.26889 10.2502 5.68311V6.43639C9.8626 6.48623 9.46071 6.59523 9.11191 6.81248C8.6469 7.10212 8.31249 7.5649 8.23779 8.19381C8.18239 8.66026 8.2316 9.09239 8.40912 9.47557C8.58755 9.86072 8.86766 10.1361 9.17365 10.3331C9.73223 10.6927 10.4619 10.8358 11.0051 10.9424L11.0344 10.9481L11.0805 10.9572L11.0805 10.9572C11.3616 11.0123 11.6063 11.0603 11.8275 11.1201C12.0622 11.1835 12.2197 11.2476 12.3211 11.3115C12.4117 11.3686 12.4299 11.4072 12.4373 11.4269C12.4474 11.4537 12.4746 11.5521 12.4178 11.784C12.3942 11.8805 12.3309 11.9811 12.125 12.0785C11.9026 12.1838 11.5729 12.2513 11.1661 12.2642C10.3342 12.2905 9.4762 12.0842 9.14986 11.9122C8.78342 11.7191 8.32981 11.8596 8.1367 12.226C7.94358 12.5925 8.08409 13.0461 8.45054 13.2392C8.87452 13.4627 9.54349 13.6421 10.2502 13.7218V14.4831C10.2502 14.8973 10.586 15.2331 11.0002 15.2331C11.4144 15.2331 11.7502 14.8973 11.7502 14.4831V13.7198C12.1002 13.6723 12.4504 13.584 12.7667 13.4343C13.2628 13.1995 13.7161 12.789 13.8748 12.1407C13.98 11.7112 13.9878 11.2887 13.8414 10.8991C13.6922 10.5023 13.4168 10.2289 13.1205 10.0423C12.8352 9.86262 12.5129 9.75151 12.2189 9.67205C11.9444 9.59787 11.6502 9.54025 11.3839 9.48809L11.3838 9.48809L11.3233 9.47623C10.7046 9.35478 10.2668 9.25288 9.98566 9.07189C9.86675 8.99534 9.80548 8.92127 9.77016 8.84504C9.73393 8.76683 9.69704 8.62563 9.72732 8.37073C9.74477 8.22378 9.80032 8.15087 9.90495 8.0857C10.0423 8.00013 10.2779 7.92919 10.6217 7.90699C11.3073 7.86273 12.1408 8.02855 12.6641 8.20455C13.0567 8.3366 13.482 8.12538 13.6141 7.73278C13.7461 7.34017 13.5349 6.91486 13.1423 6.78281C12.7742 6.65902 12.2802 6.53575 11.7502 6.46372V5.68311Z" fill="currentColor"/>
</symbol><symbol id="thumbsUp" viewBox="0 0 54 54">
<path d="M31.7998 19.7999V10.2C31.7998 8.29041 31.0413 6.45907 29.691 5.10882C28.3407 3.75856 26.5094 3 24.5999 3L14.9999 24.5999V50.9997H42.0718C43.2293 51.0128 44.3526 50.6071 45.2347 49.8573C46.1168 49.1076 46.6981 48.0643 46.8717 46.9197L50.1837 25.3199C50.2881 24.6319 50.2417 23.9295 50.0477 23.2613C49.8537 22.593 49.5167 21.975 49.0602 21.4499C48.6036 20.9248 48.0383 20.5053 47.4035 20.2204C46.7687 19.9355 46.0795 19.792 45.3837 19.7999H31.7998ZM14.9999 50.9997H7.79997C6.52694 50.9997 5.30605 50.494 4.40588 49.5938C3.50571 48.6936 3 47.4728 3 46.1997V29.3998C3 28.1268 3.50571 26.9059 4.40588 26.0057C5.30605 25.1056 6.52694 24.5999 7.79997 24.5999H14.9999" fill="transparent" fill-opacity="0.14"/>
<path d="M14.9999 50.9997H7.79997C6.52694 50.9997 5.30605 50.494 4.40588 49.5938C3.50571 48.6936 3 47.4728 3 46.1997V29.3998C3 28.1268 3.50571 26.9059 4.40588 26.0057C5.30605 25.1056 6.52694 24.5999 7.79997 24.5999H14.9999M31.7998 19.7999V10.2C31.7998 8.29041 31.0413 6.45907 29.691 5.10882C28.3407 3.75856 26.5094 3 24.5999 3L14.9999 24.5999V50.9997H42.0718C43.2293 51.0128 44.3526 50.6071 45.2347 49.8573C46.1168 49.1076 46.6981 48.0643 46.8717 46.9197L50.1837 25.3199C50.2881 24.6319 50.2417 23.9295 50.0477 23.2613C49.8537 22.593 49.5167 21.975 49.0602 21.4499C48.6036 20.9248 48.0383 20.5053 47.4035 20.2204C46.7687 19.9355 46.0795 19.792 45.3837 19.7999H31.7998Z" fill="transparent" stroke="currentColor" stroke-width="6" stroke-linecap="round" stroke-linejoin="round"/>
</symbol></svg>