<svg width="20" height="24" viewBox="0 0 20 24" fill="transparent" xmlns="http://www.w3.org/2000/svg">
<g clip-path="url(#clip0_140_3026)">
<path fill-rule="evenodd" clip-rule="evenodd" d="M10.7501 1.2002C10.7501 0.785982 10.4143 0.450195 10.0001 0.450195C9.58588 0.450195 9.2501 0.785982 9.2501 1.2002V2.09882C8.88956 2.15922 8.51711 2.28518 8.19493 2.52599C7.75495 2.85484 7.48058 3.34485 7.41952 3.96178C7.37201 4.44179 7.41443 4.87735 7.56355 5.26361C7.71523 5.65649 7.96059 5.95477 8.25015 6.17848C8.77693 6.58547 9.46729 6.74791 9.95968 6.86376L9.99054 6.87103C10.5803 7.00993 10.9154 7.0977 11.1121 7.24633C11.1801 7.29772 11.2106 7.34332 11.2291 7.40242C11.2514 7.47377 11.2729 7.62257 11.2163 7.90035C11.1816 8.07043 11.0971 8.17741 10.9439 8.26441C10.7664 8.36522 10.4948 8.43456 10.144 8.44787C9.80073 8.46091 9.43197 8.41823 9.10233 8.34144C8.76263 8.2623 8.51802 8.15954 8.40096 8.08552C8.05088 7.86413 7.58761 7.96845 7.36621 8.31853C7.14482 8.66862 7.24915 9.13189 7.59923 9.35328C7.91043 9.55009 8.33238 9.70223 8.76199 9.80232C8.91776 9.8386 9.08151 9.86968 9.2501 9.89384V10.8002C9.2501 11.2144 9.58588 11.5502 10.0001 11.5502C10.4143 11.5502 10.7501 11.2144 10.7501 10.8002V9.89037C11.071 9.8346 11.3928 9.73453 11.6848 9.56869C12.1697 9.29325 12.5549 8.84264 12.686 8.20023C12.7765 7.75645 12.7804 7.33698 12.6605 6.95403C12.5367 6.55881 12.3001 6.26405 12.0165 6.04969C11.5439 5.69244 10.8973 5.54202 10.4317 5.43371L10.3345 5.41098C9.76967 5.27795 9.4019 5.17279 9.16723 4.99148C9.07052 4.91677 9.00553 4.83384 8.96289 4.72339C8.9177 4.60632 8.88185 4.41643 8.91223 4.10953C8.93494 3.88004 9.01507 3.78568 9.09295 3.72747C9.19676 3.64987 9.38092 3.57993 9.67 3.55753C10.2562 3.51212 10.9861 3.68388 11.4494 3.87086C11.8335 4.02589 12.2705 3.84018 12.4256 3.45608C12.5806 3.07197 12.3949 2.63491 12.0108 2.47988C11.6782 2.34567 11.2326 2.21074 10.7501 2.12882V1.2002Z" fill="currentColor"/>
<path d="M6.56074 17.2862H11.4673C12.0195 17.2862 12.485 16.8336 12.3954 16.2886C11.9589 13.6351 9.63314 14.9673 8.17159 14.2574C6.21047 13.3048 4.63051 12.6748 3.51801 13.1774C2.60446 13.59 1.75787 14.6454 1.13969 15.4688C0.946301 15.7263 0.891019 16.062 0.988443 16.369L2.40174 20.8225C2.53354 21.2378 2.91697 21.5203 3.35268 21.5266C4.77719 21.547 8.00759 21.6309 10.5051 21.9756C10.6197 21.9915 10.7347 21.9887 10.8478 21.9637C14.0333 21.2603 17.7734 19.0704 18.9436 18.0537C19.0433 17.9671 19.1219 17.8586 19.1462 17.7287C19.3174 16.8107 18.4095 15.1068 16.4943 16C14.436 16.96 14.9551 16.912 13.4516 17.68C12.2248 18.3067 10.8424 18.1503 10.197 17.8759C9.97568 17.7819 9.7516 17.6644 9.51282 17.6361L6.56074 17.2862Z" stroke="currentColor" stroke-width="1.5" stroke-linejoin="round"/>
</g>
<defs>
<clipPath id="clip0_140_3026">
<rect width="20" height="24" fill="currentColor"/>
</clipPath>
</defs>
</svg>
