<svg width="44" height="55" viewBox="0 0 44 55" fill="none" xmlns="http://www.w3.org/2000/svg">
				<g opacity="0.3">
					<path opacity="0.3" d="M36.8903 12.5405C35.4463 12.5392 34.0618 11.9855 33.0407 11.0012C32.0197 10.0168 31.4454 8.68211 31.444 7.29002V0H7.10759C5.22254 0 3.4147 0.721934 2.08177 2.00695C0.748834 3.29196 0 5.03478 0 6.85206V48.1581C0.00279929 49.9736 0.752869 51.7138 2.0855 52.9967C3.41813 54.2795 5.22437 55 7.10759 55H36.3198C37.2534 55.0003 38.1779 54.8234 39.0405 54.4792C39.9032 54.135 40.687 53.6303 41.3473 52.994C42.0076 52.3577 42.5313 51.6022 42.8887 50.7707C43.2461 49.9392 43.43 49.048 43.43 48.1479V12.5303L36.8903 12.5405Z" fill="#3F51B5" />
				</g>
				<path d="M43.4298 12.5405H36.8901C35.4461 12.5392 34.0616 11.9855 33.0406 11.0012C32.0195 10.0168 31.4452 8.68211 31.4438 7.29002V0L43.4298 12.5405Z" fill="#3F51B5" />
				<path d="M31.4019 38.3981H12.0284C10.3512 38.3981 8.98828 36.7888 8.98828 34.8078V21.264C8.98828 19.2856 10.3512 17.6763 12.0284 17.6763H31.4019C33.0791 17.6763 34.442 19.2856 34.442 21.264V34.8078C34.442 36.7888 33.0791 38.3981 31.4019 38.3981ZM12.0284 19.5097C11.2096 19.5097 10.5413 20.2964 10.5413 21.264V34.8078C10.5413 35.7754 11.2096 36.5622 12.0284 36.5622H31.4019C32.2207 36.5622 32.8863 35.7754 32.8863 34.8078V21.264C32.8863 20.2964 32.2207 19.5097 31.4019 19.5097H12.0284Z" fill="#3F51B5" />
				<path d="M33.6653 30.2422H9.76465V32.0781H33.6653V30.2422Z" fill="#3F51B5" />
				<path d="M33.6653 23.9479H9.76465V25.7838H33.6653V23.9479Z" fill="#3F51B5" />
				<path d="M27.5455 18.5929H25.6411V37.4788H27.5455V18.5929Z" fill="#3F51B5" />
				<path d="M17.7886 18.5929H15.8843V37.4788H17.7886V18.5929Z" fill="#3F51B5" />
</svg>