<svg width="48" height="53" viewBox="0 0 48 53" fill="none" xmlns="http://www.w3.org/2000/svg">
<g opacity="0.3">
<path opacity="0.3" d="M36.5273 12.0792C35.0972 12.0786 33.726 11.5455 32.7148 10.597C31.7037 9.64848 31.1353 8.36223 31.1346 7.02087V0H7.03768C6.11327 -5.98712e-08 5.19791 0.170821 4.3439 0.502725C3.48988 0.834629 2.71388 1.3211 2.06034 1.93436C1.4068 2.54761 0.888511 3.27564 0.53499 4.07684C0.18147 4.87804 -0.000343036 5.73674 4.85884e-07 6.60385V46.3961C-0.000343036 47.2633 0.18147 48.1219 0.53499 48.9231C0.888511 49.7243 1.4068 50.4524 2.06034 51.0656C2.71388 51.6789 3.48988 52.1653 4.3439 52.4972C5.19791 52.8291 6.11327 53 7.03768 53H35.9623C36.8867 53 37.8021 52.8291 38.6561 52.4972C39.5101 52.1653 40.2861 51.6789 40.9396 51.0656C41.5931 50.4524 42.1115 49.7243 42.465 48.9231C42.8185 48.1219 43.0003 47.2633 43 46.3961V12.0817L36.5273 12.0792Z" fill="#3F51B5"/>
</g>
<path d="M42.9997 12.0792H36.527C35.0969 12.0786 33.7257 11.5455 32.7145 10.597C31.7034 9.64848 31.135 8.36224 31.1343 7.02087V0L42.9997 12.0792Z" fill="#3F51B5"/>
<path d="M27.2775 35.9158H15.7259C14.5951 35.9145 13.5109 35.4925 12.7113 34.7424C11.9117 33.9924 11.4618 32.9754 11.4604 31.9147V21.0792C11.4618 20.0185 11.9117 19.0015 12.7113 18.2514C13.5109 17.5014 14.5951 17.0794 15.7259 17.0781H27.2775C28.4081 17.0794 29.4919 17.5015 30.2911 18.2516C31.0904 19.0017 31.5397 20.0187 31.5404 21.0792V31.9147C31.5397 32.9752 31.0904 33.9922 30.2911 34.7423C29.4919 35.4924 28.4081 35.9145 27.2775 35.9158ZM15.7259 18.8468C15.095 18.8475 14.49 19.0829 14.0438 19.5014C13.5977 19.9199 13.3467 20.4873 13.346 21.0792V31.9147C13.3467 32.5065 13.5977 33.074 14.0438 33.4925C14.49 33.911 15.095 34.1464 15.7259 34.147H27.2775C27.9082 34.1464 28.5129 33.9109 28.9586 33.4923C29.4044 33.0738 29.6548 32.5063 29.6548 31.9147V21.0792C29.6548 20.4876 29.4044 19.9201 28.9586 19.5016C28.5129 19.083 27.9082 18.8475 27.2775 18.8468H15.7259Z" fill="#3F51B5"/>
<path d="M30.5986 29.8545V31.9151C30.5979 32.7412 30.2477 33.5332 29.625 34.1174C29.0023 34.7015 28.1579 35.03 27.2772 35.0306H15.7257C14.8448 35.0306 14 34.7024 13.3771 34.1181C12.7542 33.5338 12.4043 32.7414 12.4043 31.9151V28.4562C14.2533 28.0833 17.0699 27.9656 20.488 29.2461L22.6064 27.3523L24.05 30.7867C24.05 30.7867 24.437 29.5233 25.6871 29.7024C26.9372 29.8815 28.9614 30.5168 29.8271 29.9747C30.0603 29.8485 30.3343 29.8058 30.5986 29.8545Z" fill="#3F51B5"/>
<path d="M26.5526 23.2928C27.2618 23.2928 27.8367 22.7535 27.8367 22.0883C27.8367 21.4231 27.2618 20.8838 26.5526 20.8838C25.8434 20.8838 25.2686 21.4231 25.2686 22.0883C25.2686 22.7535 25.8434 23.2928 26.5526 23.2928Z" fill="#3F51B5"/>
<circle cx="41" cy="44" r="7" fill="#3F51B5"/>
<path d="M38.2 44.0005H43.8" stroke="white" stroke-width="1.5" stroke-linejoin="round"/>
<path d="M41 46.8004V41.2004" stroke="white" stroke-width="1.5" stroke-linejoin="round"/>
</svg>
