<svg width="19" height="19" viewBox="0 0 19 19" fill="none" xmlns="http://www.w3.org/2000/svg">
<path fill-rule="evenodd" clip-rule="evenodd" d="M14.0181 4.98187C14.3273 5.29104 14.3273 5.79229 14.0181 6.10146L6.10146 14.0181C5.79229 14.3273 5.29104 14.3273 4.98187 14.0181C4.67271 13.709 4.67271 13.2077 4.98187 12.8985L12.8985 4.98187C13.2077 4.67271 13.709 4.67271 14.0181 4.98187Z" fill="currentColor"/>
<path fill-rule="evenodd" clip-rule="evenodd" d="M4.75 5.54167C4.75 5.10444 5.10444 4.75 5.54167 4.75H13.4583C13.8956 4.75 14.25 5.10444 14.25 5.54167V13.4583C14.25 13.8956 13.8956 14.25 13.4583 14.25C13.0211 14.25 12.6667 13.8956 12.6667 13.4583V6.33333H5.54167C5.10444 6.33333 4.75 5.97889 4.75 5.54167Z" fill="currentColor"/>
</svg>
