<svg width="157" height="119" viewBox="0 0 157 119" fill="none" xmlns="http://www.w3.org/2000/svg">
<path d="M126.319 0H33.7655C29.5059 0 26.0527 3.70964 26.0527 8.28571V107.714C26.0527 112.29 29.5059 116 33.7655 116H126.319C130.578 116 134.031 112.29 134.031 107.714V8.28571C134.031 3.70964 130.578 0 126.319 0Z" fill="url(#paint0_linear_321_5182)"/>
<g filter="url(#filter0_d_321_5182)">
<path d="M43.0214 44.7427H147.144C148.167 44.7427 149.147 45.1792 149.871 45.9561C150.594 46.733 151 47.7868 151 48.8855V69.5998C151 70.6986 150.594 71.7523 149.871 72.5293C149.147 73.3062 148.167 73.7427 147.144 73.7427H43.0214C41.9986 73.7427 41.0178 73.3062 40.2945 72.5293C39.5713 71.7523 39.165 70.6986 39.165 69.5998V48.8855C39.165 47.7868 39.5713 46.733 40.2945 45.9561C41.0178 45.1792 41.9986 44.7427 43.0214 44.7427V44.7427Z" fill="white"/>
</g>
<path d="M100.096 51.3711H80.0423C78.7645 51.3711 77.7285 52.484 77.7285 53.8568C77.7285 55.2296 78.7645 56.3425 80.0423 56.3425H100.096C101.373 56.3425 102.409 55.2296 102.409 53.8568C102.409 52.484 101.373 51.3711 100.096 51.3711Z" fill="#B4DAFF"/>
<path d="M113.979 62.1426H80.0423C78.7645 62.1426 77.7285 63.2555 77.7285 64.6283C77.7285 66.0011 78.7645 67.114 80.0423 67.114H113.979C115.256 67.114 116.292 66.0011 116.292 64.6283C116.292 63.2555 115.256 62.1426 113.979 62.1426Z" fill="#DEE9FC"/>
<path d="M62.6885 67.114C66.7351 67.114 70.0156 63.5898 70.0156 59.2425C70.0156 54.8953 66.7351 51.3711 62.6885 51.3711C58.6418 51.3711 55.3613 54.8953 55.3613 59.2425C55.3613 63.5898 58.6418 67.114 62.6885 67.114Z" fill="#1485FD"/>
<path d="M63.4948 63.1709H64.2998L62.1998 58.4109H61.4928L59.3858 63.1709H60.1908L60.6808 62.0299H63.0048L63.4948 63.1709ZM60.9608 61.3579L61.8428 59.3069L62.7178 61.3579H60.9608ZM61.5418 66.4109H59.7848V71.1709H60.5408V69.7359H61.4368C62.6268 69.7359 63.4108 69.0569 63.4108 68.0349C63.4108 67.0619 62.6688 66.4109 61.5418 66.4109ZM61.5208 69.0429H60.5408V67.1039H61.5208C62.2068 67.1039 62.6688 67.4819 62.6688 68.0349C62.6688 68.6369 62.2068 69.0429 61.5208 69.0429Z" fill="white"/>
<g filter="url(#filter1_d_321_5182)">
<path d="M9.85638 80.3716H113.979C115.002 80.3716 115.982 80.8081 116.706 81.585C117.429 82.3619 117.835 83.4157 117.835 84.5144V105.229C117.835 106.327 117.429 107.381 116.706 108.158C115.982 108.935 115.002 109.372 113.979 109.372H9.85638C8.83361 109.372 7.85272 108.935 7.12951 108.158C6.4063 107.381 6 106.327 6 105.229V84.5144C6 83.4157 6.4063 82.3619 7.12951 81.585C7.85272 80.8081 8.83361 80.3716 9.85638 80.3716V80.3716Z" fill="white"/>
</g>
<path d="M66.9305 87H46.8773C45.5994 87 44.5635 88.1129 44.5635 89.4857C44.5635 90.8585 45.5994 91.9714 46.8773 91.9714H66.9305C68.2084 91.9714 69.2443 90.8585 69.2443 89.4857C69.2443 88.1129 68.2084 87 66.9305 87Z" fill="#B4DAFF"/>
<path d="M80.8135 97.7715H46.8773C45.5994 97.7715 44.5635 98.8844 44.5635 100.257C44.5635 101.63 45.5994 102.743 46.8773 102.743H80.8135C82.0914 102.743 83.1273 101.63 83.1273 100.257C83.1273 98.8844 82.0914 97.7715 80.8135 97.7715Z" fill="#DEE9FC"/>
<path d="M19.497 102.743C23.5437 102.743 26.8242 99.2187 26.8242 94.8714C26.8242 90.5242 23.5437 87 19.497 87C15.4504 87 12.1699 90.5242 12.1699 94.8714C12.1699 99.2187 15.4504 102.743 19.497 102.743Z" fill="#1485FD"/>
<path d="M20.4659 93.2117H19.7029V96.1937C19.7029 96.9427 19.2829 97.3557 18.7019 97.3557C18.1419 97.3557 17.7219 97.0617 17.6659 96.4947H16.9029C16.9799 97.4817 17.6869 98.0557 18.6529 98.0557C19.7589 98.0557 20.4659 97.4047 20.4659 96.2147V93.2117ZM19.1289 101.128C18.0719 101.128 17.3719 101.688 17.3719 102.556C17.3719 103.256 17.7849 103.711 18.6739 103.879L19.5069 104.04C20.0669 104.138 20.2559 104.397 20.2559 104.684C20.2559 105.125 19.8709 105.384 19.2479 105.384C18.4919 105.384 18.0159 105.027 17.9249 104.425H17.1759C17.2669 105.447 18.0439 106.056 19.2059 106.056C20.2979 106.056 21.0259 105.482 21.0259 104.593C21.0259 103.858 20.5149 103.48 19.6259 103.305L18.9609 103.172C18.4499 103.074 18.1699 102.878 18.1699 102.5C18.1699 102.038 18.5689 101.779 19.1779 101.779C19.8709 101.779 20.2139 102.087 20.2979 102.591H21.0399C20.9279 101.492 20.0039 101.128 19.1289 101.128Z" fill="white"/>
<g filter="url(#filter2_d_321_5182)">
<path d="M113.979 9.11426H9.85638C7.72656 9.11426 6 10.9691 6 13.2571V33.9714C6 36.2594 7.72656 38.1143 9.85638 38.1143H113.979C116.109 38.1143 117.835 36.2594 117.835 33.9714V13.2571C117.835 10.9691 116.109 9.11426 113.979 9.11426Z" fill="white"/>
</g>
<path d="M65.3885 15.7427H45.3353C44.0574 15.7427 43.0215 16.8556 43.0215 18.2284C43.0215 19.6012 44.0574 20.7141 45.3353 20.7141H65.3885C66.6664 20.7141 67.7023 19.6012 67.7023 18.2284C67.7023 16.8556 66.6664 15.7427 65.3885 15.7427Z" fill="#B4DAFF"/>
<path d="M79.2715 26.5142H45.3353C44.0574 26.5142 43.0215 27.6271 43.0215 28.9999C43.0215 30.3727 44.0574 31.4856 45.3353 31.4856H79.2715C80.5494 31.4856 81.5853 30.3727 81.5853 28.9999C81.5853 27.6271 80.5494 26.5142 79.2715 26.5142Z" fill="#DEE9FC"/>
<path d="M29.5234 31.4855C33.5701 31.4855 36.8505 27.9614 36.8505 23.6141C36.8505 19.2668 33.5701 15.7427 29.5234 15.7427C25.4768 15.7427 22.1963 19.2668 22.1963 23.6141C22.1963 27.9614 25.4768 31.4855 29.5234 31.4855Z" fill="#1485FD"/>
<path d="M29.1547 16.8704C28.0977 16.8704 27.3977 17.4304 27.3977 18.2984C27.3977 18.9984 27.8107 19.4534 28.6997 19.6214L29.5327 19.7824C30.0927 19.8804 30.2817 20.1394 30.2817 20.4264C30.2817 20.8674 29.8967 21.1264 29.2737 21.1264C28.5177 21.1264 28.0417 20.7694 27.9507 20.1674H27.2017C27.2927 21.1894 28.0697 21.7984 29.2317 21.7984C30.3237 21.7984 31.0517 21.2244 31.0517 20.3354C31.0517 19.6004 30.5407 19.2224 29.6517 19.0474L28.9867 18.9144C28.4757 18.8164 28.1957 18.6204 28.1957 18.2424C28.1957 17.7804 28.5947 17.5214 29.2037 17.5214C29.8967 17.5214 30.2397 17.8294 30.3237 18.3334H31.0657C30.9537 17.2344 30.0297 16.8704 29.1547 16.8704ZM28.8332 24.9544H27.0762V29.7144H28.8332C30.2962 29.7144 31.3602 28.6994 31.3602 27.3064C31.3602 25.9484 30.2962 24.9544 28.8332 24.9544ZM28.8332 29.0144H27.8322V25.6474H28.8332C29.8342 25.6474 30.5972 26.3614 30.5972 27.3064C30.5972 28.2864 29.8342 29.0144 28.8332 29.0144Z" fill="white"/>
<defs>
<filter id="filter0_d_321_5182" x="33.165" y="41.7427" width="123.835" height="41" filterUnits="userSpaceOnUse" color-interpolation-filters="sRGB">
<feFlood flood-opacity="0" result="BackgroundImageFix"/>
<feColorMatrix in="SourceAlpha" type="matrix" values="0 0 0 0 0 0 0 0 0 0 0 0 0 0 0 0 0 0 127 0" result="hardAlpha"/>
<feOffset dy="3"/>
<feGaussianBlur stdDeviation="3"/>
<feColorMatrix type="matrix" values="0 0 0 0 0 0 0 0 0 0 0 0 0 0 0 0 0 0 0.161 0"/>
<feBlend mode="normal" in2="BackgroundImageFix" result="effect1_dropShadow_321_5182"/>
<feBlend mode="normal" in="SourceGraphic" in2="effect1_dropShadow_321_5182" result="shape"/>
</filter>
<filter id="filter1_d_321_5182" x="0" y="77.3716" width="123.835" height="41" filterUnits="userSpaceOnUse" color-interpolation-filters="sRGB">
<feFlood flood-opacity="0" result="BackgroundImageFix"/>
<feColorMatrix in="SourceAlpha" type="matrix" values="0 0 0 0 0 0 0 0 0 0 0 0 0 0 0 0 0 0 127 0" result="hardAlpha"/>
<feOffset dy="3"/>
<feGaussianBlur stdDeviation="3"/>
<feColorMatrix type="matrix" values="0 0 0 0 0 0 0 0 0 0 0 0 0 0 0 0 0 0 0.161 0"/>
<feBlend mode="normal" in2="BackgroundImageFix" result="effect1_dropShadow_321_5182"/>
<feBlend mode="normal" in="SourceGraphic" in2="effect1_dropShadow_321_5182" result="shape"/>
</filter>
<filter id="filter2_d_321_5182" x="0" y="6.11426" width="123.835" height="41" filterUnits="userSpaceOnUse" color-interpolation-filters="sRGB">
<feFlood flood-opacity="0" result="BackgroundImageFix"/>
<feColorMatrix in="SourceAlpha" type="matrix" values="0 0 0 0 0 0 0 0 0 0 0 0 0 0 0 0 0 0 127 0" result="hardAlpha"/>
<feOffset dy="3"/>
<feGaussianBlur stdDeviation="3"/>
<feColorMatrix type="matrix" values="0 0 0 0 0 0 0 0 0 0 0 0 0 0 0 0 0 0 0.161 0"/>
<feBlend mode="normal" in2="BackgroundImageFix" result="effect1_dropShadow_321_5182"/>
<feBlend mode="normal" in="SourceGraphic" in2="effect1_dropShadow_321_5182" result="shape"/>
</filter>
<linearGradient id="paint0_linear_321_5182" x1="80.0421" y1="0" x2="80.0421" y2="116" gradientUnits="userSpaceOnUse">
<stop stop-color="#E3ECFA"/>
<stop offset="1" stop-color="#DAE7FF"/>
</linearGradient>
</defs>
</svg>
