<svg width="22" height="22" viewBox="0 0 22 22" fill="transparent" xmlns="http://www.w3.org/2000/svg">
<path d="M4.5835 9.16683H6.41683C8.25016 9.16683 9.16683 8.25016 9.16683 6.41683V4.5835C9.16683 2.75016 8.25016 1.8335 6.41683 1.8335H4.5835C2.75016 1.8335 1.8335 2.75016 1.8335 4.5835V6.41683C1.8335 8.25016 2.75016 9.16683 4.5835 9.16683Z" stroke="currentColor" stroke-width="1.5" stroke-miterlimit="10" stroke-linecap="round" stroke-linejoin="round"/>
<path d="M15.5835 9.16683H17.4168C19.2502 9.16683 20.1668 8.25016 20.1668 6.41683V4.5835C20.1668 2.75016 19.2502 1.8335 17.4168 1.8335H15.5835C13.7502 1.8335 12.8335 2.75016 12.8335 4.5835V6.41683C12.8335 8.25016 13.7502 9.16683 15.5835 9.16683Z" stroke="currentColor" stroke-width="1.5" stroke-miterlimit="10" stroke-linecap="round" stroke-linejoin="round"/>
<path d="M15.5835 20.1668H17.4168C19.2502 20.1668 20.1668 19.2502 20.1668 17.4168V15.5835C20.1668 13.7502 19.2502 12.8335 17.4168 12.8335H15.5835C13.7502 12.8335 12.8335 13.7502 12.8335 15.5835V17.4168C12.8335 19.2502 13.7502 20.1668 15.5835 20.1668Z" stroke="currentColor" stroke-width="1.5" stroke-miterlimit="10" stroke-linecap="round" stroke-linejoin="round"/>
<path d="M4.5835 20.1668H6.41683C8.25016 20.1668 9.16683 19.2502 9.16683 17.4168V15.5835C9.16683 13.7502 8.25016 12.8335 6.41683 12.8335H4.5835C2.75016 12.8335 1.8335 13.7502 1.8335 15.5835V17.4168C1.8335 19.2502 2.75016 20.1668 4.5835 20.1668Z" stroke="currentColor" stroke-width="1.5" stroke-miterlimit="10" stroke-linecap="round" stroke-linejoin="round"/>
</svg>
