
<svg width="20" height="20" viewBox="0 0 20 20" fill="none" xmlns="http://www.w3.org/2000/svg">
<path d="M14.4106 4.41083L4.41058 14.4108C4.08514 14.7363 4.08514 15.2639 4.41058 15.5893C4.73602 15.9148 5.26366 15.9148 5.58909 15.5893L15.5891 5.58934C15.9145 5.2639 15.9145 4.73626 15.5891 4.41083C15.2637 4.08539 14.736 4.08539 14.4106 4.41083Z" fill="#3F51B5"/>
<path d="M4.41058 5.58934L14.4106 15.5893C14.736 15.9148 15.2637 15.9148 15.5891 15.5893C15.9145 15.2639 15.9145 14.7363 15.5891 14.4108L5.58909 4.41083C5.26366 4.08539 4.73602 4.08539 4.41058 4.41083C4.08514 4.73626 4.08514 5.2639 4.41058 5.58934Z" fill="#3F51B5"/>
</svg>
