<svg width="20" height="20" viewBox="0 0 20 20" fill="none" xmlns="http://www.w3.org/2000/svg">
<circle cx="10.0003" cy="9.99984" r="8.33333" fill="#536DFE" stroke="currentColor" stroke-width="1.5" stroke-linejoin="round"/>
<path fill-rule="evenodd" clip-rule="evenodd" d="M10.7502 5C10.7502 4.58579 10.4144 4.25 10.0002 4.25C9.58594 4.25 9.25015 4.58579 9.25015 5V5.94687C8.79147 5.99673 8.31502 6.11695 7.90844 6.37019C7.40459 6.68402 7.04359 7.18332 6.96261 7.86514C6.90136 8.38077 6.95645 8.85198 7.14854 9.26662C7.34154 9.68323 7.64493 9.98243 7.97989 10.1981C8.59796 10.596 9.41067 10.7555 10.033 10.8776L10.0587 10.8826L10.1125 10.8932C10.4306 10.9556 10.7119 11.0107 10.967 11.0797C11.2377 11.1529 11.4279 11.2289 11.5557 11.3094C11.6726 11.3831 11.7109 11.4429 11.729 11.491C11.7497 11.5462 11.7783 11.6802 11.7104 11.9572C11.6744 12.1045 11.5758 12.2399 11.3221 12.36C11.0518 12.4879 10.6617 12.5659 10.1919 12.5807C9.23416 12.611 8.24039 12.3748 7.84982 12.169C7.48337 11.9759 7.02976 12.1164 6.83665 12.4828C6.64353 12.8493 6.78404 13.3029 7.15049 13.496C7.63683 13.7523 8.42404 13.9591 9.25015 14.043V15C9.25015 15.4142 9.58594 15.75 10.0002 15.75C10.4144 15.75 10.7502 15.4142 10.7502 15V14.0425C11.1696 13.9929 11.5895 13.8929 11.9638 13.7158C12.5077 13.4583 12.9963 13.0129 13.1674 12.3139C13.2836 11.8392 13.2902 11.3813 13.133 10.9632C12.9732 10.5381 12.6777 10.2434 12.3551 10.0402C12.0434 9.84388 11.6883 9.72082 11.3583 9.63162C11.0501 9.54831 10.7192 9.4835 10.4158 9.42408L10.4158 9.42408L10.3476 9.41072C9.64952 9.27369 9.13095 9.15518 8.7919 8.93688C8.64402 8.84168 8.55947 8.74379 8.50958 8.63609C8.45878 8.52643 8.41602 8.34614 8.45214 8.04206C8.47588 7.8422 8.55801 7.73277 8.70147 7.64341C8.87769 7.53365 9.16431 7.45085 9.56343 7.42508C10.3596 7.37368 11.3205 7.56552 11.9235 7.76834C12.3161 7.90039 12.7415 7.68917 12.8735 7.29657C13.0055 6.90397 12.7943 6.47865 12.4017 6.34661C11.9677 6.20063 11.378 6.05553 10.7502 5.97684V5Z" fill="currentColor"/>
</svg>
