<svg width="119" height="147" viewBox="0 0 119 147" fill="none" xmlns="http://www.w3.org/2000/svg">
<path d="M59.5 136.614C92.3609 136.614 119 109.608 119 76.2945C119 42.981 92.3609 15.9751 59.5 15.9751C26.6391 15.9751 0 42.981 0 76.2945C0 109.608 26.6391 136.614 59.5 136.614Z" fill="url(#paint0_linear_321_5078)"/>
<g filter="url(#filter0_d_321_5078)">
<path d="M93.6133 50.5581H25.3866C23.1959 50.5581 21.4199 52.3585 21.4199 54.5794V139.027C21.4199 141.247 23.1959 143.048 25.3866 143.048H93.6133C95.804 143.048 97.5799 141.247 97.5799 139.027V54.5794C97.5799 52.3585 95.804 50.5581 93.6133 50.5581Z" fill="white"/>
</g>
<path d="M51.5662 62.6221H30.9396C29.6251 62.6221 28.5596 63.7023 28.5596 65.0348C28.5596 66.3674 29.6251 67.4476 30.9396 67.4476H51.5662C52.8807 67.4476 53.9462 66.3674 53.9462 65.0348C53.9462 63.7023 52.8807 62.6221 51.5662 62.6221Z" fill="#C5CAE8"/>
<path d="M65.8462 73.0776H30.9396C29.6251 73.0776 28.5596 74.1579 28.5596 75.4904C28.5596 76.8229 29.6251 77.9032 30.9396 77.9032H65.8462C67.1607 77.9032 68.2262 76.8229 68.2262 75.4904C68.2262 74.1579 67.1607 73.0776 65.8462 73.0776Z" fill="#DFEAFB"/>
<path d="M51.5662 84.3369H30.9396C29.6251 84.3369 28.5596 85.4171 28.5596 86.7497C28.5596 88.0822 29.6251 89.1625 30.9396 89.1625H51.5662C52.8807 89.1625 53.9462 88.0822 53.9462 86.7497C53.9462 85.4171 52.8807 84.3369 51.5662 84.3369Z" fill="#C5CAE8"/>
<path d="M65.8462 94.7925H30.9396C29.6251 94.7925 28.5596 95.8727 28.5596 97.2053C28.5596 98.5378 29.6251 99.618 30.9396 99.618H65.8462C67.1607 99.618 68.2262 98.5378 68.2262 97.2053C68.2262 95.8727 67.1607 94.7925 65.8462 94.7925Z" fill="#DFEAFB"/>
<path d="M51.5662 106.052H30.9396C29.6251 106.052 28.5596 107.132 28.5596 108.465C28.5596 109.798 29.6251 110.878 30.9396 110.878H51.5662C52.8807 110.878 53.9462 109.798 53.9462 108.465C53.9462 107.132 52.8807 106.052 51.5662 106.052Z" fill="#C5CAE8"/>
<path d="M65.8462 116.507H30.9396C29.6251 116.507 28.5596 117.588 28.5596 118.92C28.5596 120.253 29.6251 121.333 30.9396 121.333H65.8462C67.1607 121.333 68.2262 120.253 68.2262 118.92C68.2262 117.588 67.1607 116.507 65.8462 116.507Z" fill="#DFEAFB"/>
<g filter="url(#filter1_d_321_5078)">
<path d="M93.6133 9.54102H25.3866C23.1959 9.54102 21.4199 11.3414 21.4199 13.5623V37.6901C21.4199 39.9109 23.1959 41.7113 25.3866 41.7113H93.6133C95.804 41.7113 97.5799 39.9109 97.5799 37.6901V13.5623C97.5799 11.3414 95.804 9.54102 93.6133 9.54102Z" fill="#536DFE"/>
</g>
<path d="M51.5662 18.3877H30.9396C29.6251 18.3877 28.5596 19.4679 28.5596 20.8005C28.5596 22.133 29.6251 23.2132 30.9396 23.2132H51.5662C52.8807 23.2132 53.9462 22.133 53.9462 20.8005C53.9462 19.4679 52.8807 18.3877 51.5662 18.3877Z" fill="#C5CAE8"/>
<path d="M65.8462 28.8428H30.9396C29.6251 28.8428 28.5596 29.923 28.5596 31.2555C28.5596 32.5881 29.6251 33.6683 30.9396 33.6683H65.8462C67.1607 33.6683 68.2262 32.5881 68.2262 31.2555C68.2262 29.923 67.1607 28.8428 65.8462 28.8428Z" fill="white"/>
<defs>
<filter id="filter0_d_321_5078" x="15.4199" y="41.5581" width="88.1602" height="104.49" filterUnits="userSpaceOnUse" color-interpolation-filters="sRGB">
<feFlood flood-opacity="0" result="BackgroundImageFix"/>
<feColorMatrix in="SourceAlpha" type="matrix" values="0 0 0 0 0 0 0 0 0 0 0 0 0 0 0 0 0 0 127 0" result="hardAlpha"/>
<feOffset dy="-3"/>
<feGaussianBlur stdDeviation="3"/>
<feColorMatrix type="matrix" values="0 0 0 0 0.788235 0 0 0 0 0.803922 0 0 0 0 0.85098 0 0 0 0.349 0"/>
<feBlend mode="normal" in2="BackgroundImageFix" result="effect1_dropShadow_321_5078"/>
<feBlend mode="normal" in="SourceGraphic" in2="effect1_dropShadow_321_5078" result="shape"/>
</filter>
<filter id="filter1_d_321_5078" x="15.4199" y="0.541016" width="88.1602" height="44.1704" filterUnits="userSpaceOnUse" color-interpolation-filters="sRGB">
<feFlood flood-opacity="0" result="BackgroundImageFix"/>
<feColorMatrix in="SourceAlpha" type="matrix" values="0 0 0 0 0 0 0 0 0 0 0 0 0 0 0 0 0 0 127 0" result="hardAlpha"/>
<feOffset dy="-3"/>
<feGaussianBlur stdDeviation="3"/>
<feColorMatrix type="matrix" values="0 0 0 0 0.788235 0 0 0 0 0.803922 0 0 0 0 0.85098 0 0 0 0.349 0"/>
<feBlend mode="normal" in2="BackgroundImageFix" result="effect1_dropShadow_321_5078"/>
<feBlend mode="normal" in="SourceGraphic" in2="effect1_dropShadow_321_5078" result="shape"/>
</filter>
<linearGradient id="paint0_linear_321_5078" x1="59.5" y1="15.9751" x2="59.5" y2="136.614" gradientUnits="userSpaceOnUse">
<stop stop-color="#E3ECFA"/>
<stop offset="1" stop-color="#DAE7FF"/>
</linearGradient>
</defs>
</svg>
