<svg width="184" height="107" viewBox="0 0 184 107" fill="transparent" xmlns="http://www.w3.org/2000/svg">
<ellipse opacity="0.3" cx="92.6657" cy="53.7535" rx="55.919" ry="53.2464" fill="#3F51B5"/>
<path d="M68.7498 21.0176C85.9406 21.0176 97.7457 12.5384 106.029 12.5384C114.313 12.5384 131.71 17.0726 131.71 53.3583C131.71 89.644 108.306 94.9686 99.1946 94.9686C56.5297 94.971 38.3051 21.0176 68.7498 21.0176Z" fill="#EFEFEF"/>
<path d="M65.2566 21.5922L68.7713 18.2454L70.5287 19.9188L67.014 23.2655L65.2566 21.5922Z" fill="#AFAFAF"/>
<path d="M55.1497 31.2112L58.6644 27.8644L60.4218 29.5378L56.907 32.8846L55.1497 31.2112Z" fill="#AFAFAF"/>
<path d="M55.1519 19.499L56.9092 17.8256L60.4239 21.1724L58.6666 22.8458L55.1519 19.499Z" fill="#AFAFAF"/>
<path d="M122.489 26.5387C120.434 26.5387 118.761 24.9461 118.761 22.989C118.761 21.0319 120.434 19.4392 122.489 19.4392C124.545 19.4392 126.217 21.0319 126.217 22.989C126.217 24.9461 124.545 26.5387 122.489 26.5387ZM122.489 21.8057C121.806 21.8057 121.247 22.3382 121.247 22.989C121.247 23.6398 121.806 24.1722 122.489 24.1722C123.173 24.1722 123.732 23.6398 123.732 22.989C123.732 22.3382 123.173 21.8057 122.489 21.8057Z" fill="#AFAFAF"/>
<path d="M118.11 41.8665L113.791 39.5308H113.169V52.3809L92.6658 61.5867L72.1622 52.3809V39.5308H71.5409L67.2215 41.8665C65.6657 42.7066 64.7064 44.2804 64.7064 45.9819V74.5788C64.7064 76.5383 66.3765 78.1286 68.4343 78.1286H116.897C118.955 78.1286 120.625 76.5383 120.625 74.5788V45.9819C120.625 44.278 119.664 42.7066 118.11 41.8665Z" fill="#F3F3F1"/>
<path d="M108.199 27.1302H77.1329C74.3991 27.1302 72.1623 29.2601 72.1623 31.8633V52.3809L92.6659 61.5866L113.17 52.3809V31.8633C113.17 29.2601 110.933 27.1302 108.199 27.1302ZM84.5887 49.7304L90.5037 43.2225H94.853L100.743 49.7304H84.5887ZM84.5887 42.6309L92.6659 34.3481L100.743 42.6309H84.5887Z" fill="#3F51B5"/>
<path d="M70.2983 74.5788V45.9819C70.2983 44.543 71.0115 43.2273 72.1622 42.3374V39.5308H71.5409L67.2215 41.8665C65.6657 42.7066 64.7064 44.2804 64.7064 45.9819V74.5788C64.7064 76.5383 66.3765 78.1286 68.4343 78.1286H74.0262C71.9684 78.1286 70.2983 76.5383 70.2983 74.5788Z" fill="#AFAFAF"/>
<path d="M77.7542 52.3809V31.8633C77.7542 29.2601 79.991 27.1302 82.7248 27.1302H77.1329C74.3991 27.1302 72.1623 29.2601 72.1623 31.8633V52.3809L92.6659 61.5866L95.4619 60.3323L77.7542 52.3809Z" fill="#FF9D00"/>
<path d="M92.6659 63.359C91.6196 63.359 90.5733 63.1318 89.6189 62.6775L63.8738 50.4189L65.539 47.243L91.2866 59.5016C92.1514 59.9134 93.1828 59.9134 94.0403 59.5016L119.79 47.243L121.455 50.4189L95.7079 62.6775C94.7585 63.1318 93.7122 63.359 92.6659 63.359Z" fill="#3F51B5"/>
<path d="M116.898 79.9033H68.4344C65.3527 79.9033 62.8425 77.5132 62.8425 74.5787V45.9818C62.8425 43.6461 64.1672 41.4784 66.3045 40.3212L70.6215 37.9878L72.4606 41.0761L68.1436 43.4095C67.1719 43.9348 66.5705 44.9193 66.5705 45.9818V74.5787C66.5705 75.5561 67.408 76.3536 68.4344 76.3536H116.898C117.924 76.3536 118.761 75.5561 118.761 74.5787V45.9818C118.761 44.9193 118.16 43.9348 117.188 43.4095L112.871 41.0761L114.71 37.9878L119.027 40.3212C121.165 41.476 122.489 43.6461 122.489 45.9818V74.5787C122.489 77.5132 119.979 79.9033 116.898 79.9033Z" fill="#3F51B5"/>
<path d="M100.743 44.4057H84.5887C83.8481 44.4057 83.1771 43.9868 82.8789 43.3408C82.5806 42.6947 82.7173 41.9398 83.2218 41.4215L91.299 33.1388C92.0073 32.417 93.322 32.417 94.0328 33.1388L102.11 41.4215C102.614 41.9398 102.749 42.6924 102.453 43.3408C102.157 43.9892 101.484 44.4057 100.743 44.4057ZM88.8634 40.8559H96.4709L92.6659 36.9559L88.8634 40.8559Z" fill="#3F51B5"/>
<path d="M100.743 51.5053H84.5887C83.858 51.5053 83.1945 51.1006 82.8913 50.4688C82.5905 49.8369 82.7024 49.0962 83.1771 48.5684L89.0921 42.0605L91.9129 44.3845L88.6646 47.9555H96.6747L93.4388 44.3797L96.2646 42.0629L102.155 48.5708C102.629 49.0962 102.739 49.8369 102.436 50.4688C102.132 51.1006 101.471 51.5053 100.743 51.5053Z" fill="#3F51B5"/>
<path d="M90.802 50.322H94.5299V54.4634H90.802V50.322Z" fill="#3F51B5"/>
<path d="M115.033 52.3809H111.306V31.8633C111.306 30.2327 109.911 28.9051 108.199 28.9051H77.1328C75.4205 28.9051 74.0262 30.2327 74.0262 31.8633V52.3809H70.2983V31.8633C70.2983 28.2733 73.3626 25.3553 77.1328 25.3553H108.199C111.969 25.3553 115.033 28.2733 115.033 31.8633V52.3809Z" fill="#3F51B5"/>
<path d="M154.709 7.46735L156.084 11.497H160.534L156.934 13.9874L158.309 18.0171L154.709 15.5266L151.109 18.0171L152.484 13.9874L148.884 11.497H153.334L154.709 7.46735Z" fill="#FFA83D" fill-opacity="0.39"/>
<path d="M20.7699 78.1287L22.1449 82.1583H26.5946L22.9947 84.6488L24.3698 88.6784L20.7699 86.1879L17.17 88.6784L18.5451 84.6488L14.9452 82.1583H19.3949L20.7699 78.1287Z" fill="#FFA83D" fill-opacity="0.39"/>
<path d="M14.6454 0L17.9335 9.6361H28.5741L19.9657 15.5915L23.2538 25.2276L14.6454 19.2722L6.03707 25.2276L9.32517 15.5915L0.716799 9.6361H11.3573L14.6454 0Z" fill="#FFA83D" fill-opacity="0.39"/>
<path d="M169.355 68.4597L172.643 78.0958H183.283L174.675 84.0513L177.963 93.6874L169.355 87.7319L160.746 93.6874L164.034 84.0513L155.426 78.0958H166.066L169.355 68.4597Z" fill="#FFA83D" fill-opacity="0.39"/>
</svg>
