<svg width="20" height="20" viewBox="0 0 20 20" fill="transparent" xmlns="http://www.w3.org/2000/svg">
<path d="M9.69432 13.9304C13.5035 13.9304 16.5915 10.8269 16.5915 6.99863C16.5915 3.17034 13.5035 0.0668945 9.69432 0.0668945C5.8851 0.0668945 2.79712 3.17034 2.79712 6.99863C2.79712 10.8269 5.8851 13.9304 9.69432 13.9304Z" fill="url(#paint0_linear_140_3014)"/>
<path d="M15.969 5.92807C15.0671 6.20612 14.1154 6.48417 13.3822 6.67602L13.1858 5.88357L13.5123 5.81406V3.459H14.1956V5.64167L14.4944 5.56383V2.93627H13.551V0.589542H15.8501V2.93627H15.2331V3.7009H15.8501V4.43495H15.2331V5.37752L15.8667 5.19958L15.969 5.92807ZM14.2565 2.22447H15.0865V1.30134H14.2565V2.22447ZM18.3622 4.1986C18.6748 5.09948 19.2143 5.8669 20 6.24227C19.7711 6.44282 19.575 6.67832 19.419 6.94015C18.7483 6.51892 18.2288 5.89357 17.9361 5.15509C17.5945 5.94733 16.9929 6.59797 16.2319 6.99855C16.0656 6.76004 15.8694 6.54415 15.6481 6.35626C16.0913 6.16528 16.4818 5.86924 16.7863 5.49348C17.0908 5.11773 17.3002 4.67343 17.3966 4.1986H15.9746V3.4006H17.4934C17.51 3.21431 17.51 3.04471 17.51 2.86676V2.31066H16.9124C16.8261 2.62616 16.7074 2.93179 16.5583 3.22265C16.3413 3.07436 16.1159 2.93883 15.8833 2.81671C16.2026 2.12276 16.3903 1.37497 16.4366 0.611791L17.2085 0.734132C17.1753 1.01218 17.1393 1.26241 17.0895 1.52378H17.5156V0.383789H18.3456V1.52378H19.668V2.31066H18.3456V2.86676C18.3456 3.04471 18.3456 3.21431 18.3317 3.4006H19.8091V4.1986H18.3622Z" fill="currentColor"/>
<path d="M0 19.3218H19.8838" stroke="currentColor" stroke-miterlimit="10"/>
<path d="M5.00788 8.72217H1.9729V19.3214H5.00788V8.72217Z" stroke="currentColor" stroke-miterlimit="10"/>
<path d="M10.6075 12.8931H7.57251V19.3215H10.6075V12.8931Z" stroke="currentColor" stroke-miterlimit="10"/>
<path d="M16.5916 14.9092H13.5566V19.3218H16.5916V14.9092Z" stroke="currentColor" stroke-miterlimit="10"/>
<path d="M1.97559 2.9165L6.80611 6.99825L11.7169 7.14562L16.9569 12.156" stroke="currentColor" stroke-miterlimit="10"/>
<defs>
<linearGradient id="paint0_linear_140_3014" x1="9.69432" y1="0.0668945" x2="9.69432" y2="13.9304" gradientUnits="userSpaceOnUse">
<stop stop-color="#ADADAD"/>
<stop offset="0.0001" stop-color="currentColor" stop-opacity="0"/>
</linearGradient>
</defs>
</svg>
