<svg width="13" height="14" viewBox="0 0 13 14" fill="transparent" xmlns="http://www.w3.org/2000/svg">
<path d="M6.49967 12.823C3.28759 12.823 0.676758 10.2121 0.676758 7.00004C0.676758 3.78796 3.28759 1.17712 6.49967 1.17712C9.71176 1.17712 12.3226 3.78796 12.3226 7.00004C12.3226 10.2121 9.71176 12.823 6.49967 12.823ZM6.49967 1.98962C3.73717 1.98962 1.48926 4.23754 1.48926 7.00004C1.48926 9.76254 3.73717 12.0105 6.49967 12.0105C9.26217 12.0105 11.5101 9.76254 11.5101 7.00004C11.5101 4.23754 9.26217 1.98962 6.49967 1.98962Z" fill="#E02B1D"/>
<path d="M6.5 7.94796C6.27792 7.94796 6.09375 7.76379 6.09375 7.54171V4.83337C6.09375 4.61129 6.27792 4.42712 6.5 4.42712C6.72208 4.42712 6.90625 4.61129 6.90625 4.83337V7.54171C6.90625 7.76379 6.72208 7.94796 6.5 7.94796Z" fill="#E02B1D"/>
<path d="M6.49967 9.70831C6.42926 9.70831 6.35884 9.69206 6.29384 9.66498C6.22884 9.63789 6.16926 9.59998 6.11509 9.55123C6.06634 9.49706 6.02842 9.44289 6.00134 9.37248C5.97426 9.30748 5.95801 9.23706 5.95801 9.16664C5.95801 9.09623 5.97426 9.02581 6.00134 8.96081C6.02842 8.89581 6.06634 8.83623 6.11509 8.78206C6.16926 8.73331 6.22884 8.69539 6.29384 8.66831C6.42384 8.61414 6.57551 8.61414 6.70551 8.66831C6.77051 8.69539 6.83009 8.73331 6.88426 8.78206C6.93301 8.83623 6.97092 8.89581 6.99801 8.96081C7.02509 9.02581 7.04134 9.09623 7.04134 9.16664C7.04134 9.23706 7.02509 9.30748 6.99801 9.37248C6.97092 9.44289 6.93301 9.49706 6.88426 9.55123C6.83009 9.59998 6.77051 9.63789 6.70551 9.66498C6.64051 9.69206 6.57009 9.70831 6.49967 9.70831Z" fill="#E02B1D"/>
</svg>
