<svg width="15" height="17" viewBox="0 0 15 17" fill="none" xmlns="http://www.w3.org/2000/svg">
<path d="M14.5 7.50033C14.5 11.1097 11.3933 14.0837 7.5 14.0837C3.6067 14.0837 0.5 11.1097 0.5 7.50033C0.5 3.89099 3.6067 0.916992 7.5 0.916992C11.3933 0.916992 14.5 3.89099 14.5 7.50033Z" stroke="currentColor" stroke-opacity="0.22"/>
<path d="M7.06 8.97L7.1 8.17C8.32 8.07 9.1 7.32 9.1 6.21C9.1 4.95 8.11 4.09 6.8 4.09C5.52 4.09 4.71 4.83 4.59 5.98H5.63C5.73 5.39 6.23 5.01 6.85 5.01C7.59 5.01 8.09 5.51 8.09 6.22C8.09 6.95 7.52 7.45 6.76 7.45H6.16L6.24 8.97H7.06ZM6.63 11.07C6.99 11.07 7.29 10.79 7.29 10.43C7.29 10.07 6.99 9.8 6.63 9.8C6.27 9.8 5.98 10.07 5.98 10.43C5.98 10.79 6.27 11.07 6.63 11.07Z" fill="currentColor" fill-opacity="0.22"/>
</svg>
