<svg width="29" height="29" viewBox="0 0 29 29" fill="none" xmlns="http://www.w3.org/2000/svg">
<path d="M14.4115 0C18.3025 0 18.7819 0.0281958 20.3044 0.0845875C21.7988 0.140979 22.8421 0.394742 23.7725 0.761288C24.7312 1.12783 25.5207 1.60716 26.3101 2.39665C27.0996 3.18613 27.579 3.97561 27.9455 4.93427C28.3121 5.86474 28.5658 6.90798 28.6222 8.40236C28.6786 9.92494 28.7068 10.4043 28.7068 14.2953C28.7068 18.1863 28.6786 18.6656 28.6222 20.1882C28.5658 21.6826 28.3121 22.7258 27.9455 23.6563C27.579 24.615 27.0996 25.4045 26.3101 26.1939C25.5207 26.9834 24.7312 27.4627 23.7725 27.8293C22.8421 28.1958 21.7988 28.4496 20.3044 28.506C18.7819 28.5624 18.3025 28.5906 14.4115 28.5906C10.5205 28.5906 10.0411 28.5624 8.51857 28.506C7.02419 28.4496 5.98095 28.1958 5.05048 27.8293C4.09182 27.4627 3.30234 26.9834 2.51286 26.1939C1.72337 25.4045 1.24404 24.615 0.877499 23.6563C0.510953 22.7258 0.25719 21.6826 0.200798 20.1882C0.144407 18.6656 0.116211 18.1863 0.116211 14.2953C0.116211 10.4043 0.144407 9.92494 0.200798 8.40236C0.25719 6.90798 0.510953 5.86474 0.877499 4.93427C1.24404 3.97561 1.72337 3.18613 2.51286 2.39665C3.30234 1.60716 4.09182 1.12783 5.05048 0.761288C5.98095 0.394742 7.02419 0.140979 8.51857 0.0845875C10.0411 0.0281958 10.5205 0 14.4115 0ZM14.4115 1.86093C10.3513 1.86093 9.87197 1.88912 8.293 1.94551C6.82682 2.0019 6.00914 2.28386 5.47342 2.48123C4.09182 3.04515 3.16136 3.97561 2.59745 5.35721C2.40007 5.89293 2.11812 6.71061 2.06172 8.17679C2.00533 9.75576 1.97714 10.2351 1.97714 14.2953C1.97714 18.3555 2.00533 18.8348 2.06172 20.4138C2.11812 21.88 2.40007 22.6977 2.59745 23.2334C3.16136 24.615 4.09182 25.5454 5.47342 26.1093C6.00914 26.3067 6.82682 26.5887 8.293 26.6451C9.87197 26.7015 10.3513 26.7297 14.4115 26.7297C18.4717 26.7297 18.951 26.7015 20.53 26.6451C21.9962 26.5887 22.8139 26.3067 23.3496 26.1093C24.7312 25.5454 25.6616 24.615 26.2256 23.2334C26.4229 22.6977 26.7049 21.88 26.7613 20.4138C26.8177 18.8348 26.8459 18.3555 26.8459 14.2953C26.8459 10.2351 26.8177 9.75576 26.7613 8.17679C26.7049 6.71061 26.4229 5.89293 26.2256 5.35721C25.6616 3.97561 24.7312 3.04515 23.3496 2.48123C22.8139 2.28386 21.9962 2.0019 20.53 1.94551C18.951 1.88912 18.4717 1.86093 14.4115 1.86093ZM14.4115 20.019C17.5694 20.019 20.1353 17.4532 20.1353 14.2953C20.1353 11.1374 17.5694 8.57154 14.4115 8.57154C11.2536 8.57154 8.68775 11.1374 8.68775 14.2953C8.68775 17.4532 11.2536 20.019 14.4115 20.019ZM14.4115 6.96437C18.4717 6.96437 21.7424 10.2351 21.7424 14.2953C21.7424 18.3555 18.4717 21.6262 14.4115 21.6262C10.3513 21.6262 7.08058 18.3555 7.08058 14.2953C7.08058 10.2351 10.3513 6.96437 14.4115 6.96437ZM23.7725 6.68241C23.7725 7.64107 22.983 8.37416 22.0244 8.37416C21.0657 8.37416 20.3326 7.64107 20.3326 6.68241C20.3326 5.72376 21.0657 4.93427 22.0244 4.93427C22.983 4.93427 23.7725 5.72376 23.7725 6.68241Z" fill="black"/>
</svg>
