<svg width="20" height="20" viewBox="0 0 20 20" fill="none" xmlns="http://www.w3.org/2000/svg">
<path d="M13.492 1.6665H6.50866C3.47533 1.6665 1.66699 3.47484 1.66699 6.50817V13.4832C1.66699 16.5248 3.47533 18.3332 6.50866 18.3332H13.4837C16.517 18.3332 18.3253 16.5248 18.3253 13.4915V6.50817C18.3337 3.47484 16.5253 1.6665 13.492 1.6665ZM6.45866 7.6165C6.45866 6.9415 7.00866 6.38317 7.69199 6.38317C8.36699 6.38317 8.92533 6.93317 8.92533 7.6165C8.92533 8.2915 8.37533 8.84984 7.69199 8.84984C7.00866 8.8415 6.45866 8.2915 6.45866 7.6165ZM7.35033 13.3498C7.19199 13.3498 7.03366 13.2915 6.90866 13.1665C6.66699 12.9248 6.66699 12.5332 6.90866 12.2832L12.367 6.82484C12.6087 6.58317 13.0087 6.58317 13.2503 6.82484C13.492 7.0665 13.492 7.4665 13.2503 7.70817L7.79199 13.1665C7.66699 13.2915 7.50866 13.3498 7.35033 13.3498ZM13.142 13.6165C12.467 13.6165 11.9087 13.0665 11.9087 12.3832C11.9087 11.7082 12.4587 11.1498 13.142 11.1498C13.817 11.1498 14.3753 11.6998 14.3753 12.3832C14.3753 13.0665 13.8253 13.6165 13.142 13.6165Z" fill="currentColor"/>
</svg>
