
<svg width="15" height="15" viewBox="0 0 15 15" fill="none" xmlns="http://www.w3.org/2000/svg">
<path d="M4.53125 4.375H10.4688V3.125C10.4688 1.875 10 1.25 8.59375 1.25H6.40625C5 1.25 4.53125 1.875 4.53125 3.125V4.375Z" stroke="currentColor" stroke-width="1.5" stroke-miterlimit="10" stroke-linecap="round" stroke-linejoin="round"/>
<path d="M10 9.375V11.875C10 13.125 9.375 13.75 8.125 13.75H6.875C5.625 13.75 5 13.125 5 11.875V9.375H10Z" stroke="currentColor" stroke-width="1.5" stroke-miterlimit="10" stroke-linecap="round" stroke-linejoin="round"/>
<path d="M13.125 6.25V9.375C13.125 10.625 12.5 11.25 11.25 11.25H10V9.375H5V11.25H3.75C2.5 11.25 1.875 10.625 1.875 9.375V6.25C1.875 5 2.5 4.375 3.75 4.375H11.25C12.5 4.375 13.125 5 13.125 6.25Z" stroke="currentColor" stroke-width="1.5" stroke-miterlimit="10" stroke-linecap="round" stroke-linejoin="round"/>
<path d="M10.625 9.375H9.86875H4.375" stroke="currentColor" stroke-width="1.5" stroke-miterlimit="10" stroke-linecap="round" stroke-linejoin="round"/>
<path d="M4.375 6.875H6.25" stroke="currentColor" stroke-width="1.5" stroke-miterlimit="10" stroke-linecap="round" stroke-linejoin="round"/>
</svg>
