<svg width="20" height="20" viewBox="0 0 20 20" fill="transparent" xmlns="http://www.w3.org/2000/svg">
<path d="M17.6684 3.72266H2.47339V13.6782H17.6684V3.72266Z" fill="url(#paint0_linear_140_3002)"/>
<path d="M12.8494 4.29808H16.3858C16.5309 4.28796 16.6668 4.22308 16.7661 4.11653C16.8653 4.00998 16.9205 3.8697 16.9205 3.72399C16.9205 3.57829 16.8653 3.438 16.7661 3.33146C16.6668 3.22491 16.5309 3.16002 16.3858 3.1499H12.8494C12.7043 3.16002 12.5684 3.22491 12.4691 3.33146C12.3699 3.438 12.3147 3.57829 12.3147 3.72399C12.3147 3.8697 12.3699 4.00998 12.4691 4.11653C12.5684 4.22308 12.7043 4.28796 12.8494 4.29808Z" fill="currentColor"/>
<path d="M9.81813 7.33365H16.3858C16.5309 7.32353 16.6668 7.25865 16.766 7.1521C16.8653 7.04555 16.9205 6.90527 16.9205 6.75956C16.9205 6.61386 16.8653 6.47357 16.766 6.36702C16.6668 6.26048 16.5309 6.19559 16.3858 6.18547H9.81813C9.7395 6.17999 9.66058 6.19077 9.58629 6.21713C9.51199 6.2435 9.44392 6.2849 9.38628 6.33875C9.32864 6.39259 9.28268 6.45774 9.25126 6.53013C9.21983 6.60253 9.20361 6.68062 9.20361 6.75956C9.20361 6.8385 9.21983 6.9166 9.25126 6.989C9.28268 7.0614 9.32864 7.12654 9.38628 7.18039C9.44392 7.23423 9.51199 7.27563 9.58629 7.302C9.66058 7.32837 9.7395 7.33914 9.81813 7.33365Z" fill="currentColor"/>
<path d="M4.00854 7.33413H7.03976C7.26062 7.33413 7.47243 7.24626 7.62861 7.08985C7.78478 6.93344 7.87252 6.7213 7.87252 6.5001V3.97022C7.8716 3.75142 7.78486 3.54174 7.63102 3.3864C7.47591 3.23232 7.26655 3.14545 7.04809 3.14453H4.00854C3.78768 3.14453 3.57586 3.2324 3.41969 3.38881C3.26352 3.54522 3.17578 3.75736 3.17578 3.97856V6.50844C3.17798 6.72819 3.26668 6.93819 3.42261 7.0928C3.57855 7.24741 3.78911 7.33414 4.00854 7.33413ZM4.33609 4.29827H6.72609V6.18595H4.33609V4.29827Z" fill="currentColor"/>
<path d="M16.3997 13.7864H13.66L12.8272 12.5298C12.7757 12.4521 12.7061 12.3883 12.6243 12.3437C12.5426 12.2991 12.4512 12.2752 12.3581 12.274C12.266 12.2711 12.1747 12.2912 12.0923 12.3324C12.01 12.3737 11.9391 12.4348 11.8862 12.5103L9.8876 15.2904L7.29496 10.542C7.242 10.4435 7.16136 10.3626 7.063 10.3094C6.96465 10.2563 6.8529 10.2331 6.74156 10.2429C6.63023 10.2527 6.52419 10.2949 6.43655 10.3644C6.34892 10.4338 6.28353 10.5275 6.24847 10.6338L5.36852 13.2721H3.76131C3.65206 13.2617 3.54209 13.2822 3.44393 13.3314C3.34577 13.3805 3.26338 13.4563 3.20614 13.5501C3.15178 13.6403 3.12305 13.7436 3.12305 13.8489C3.12305 13.9543 3.15178 14.0576 3.20614 14.1478C3.26046 14.2391 3.33909 14.3135 3.43322 14.3626C3.52734 14.4117 3.63325 14.4336 3.7391 14.4258H5.7738C5.89602 14.4285 6.01588 14.3919 6.11579 14.3213C6.21571 14.2508 6.29042 14.15 6.32896 14.0338L6.923 12.2546L9.32411 16.6499C9.36911 16.736 9.43585 16.8087 9.51767 16.8609C9.59949 16.9131 9.69354 16.9429 9.79045 16.9474H9.82653C9.91837 16.9495 10.0093 16.9288 10.0912 16.887C10.1731 16.8453 10.2433 16.7839 10.2957 16.7083L12.3359 13.8531L12.8911 14.6871C12.9431 14.7656 13.0136 14.8299 13.0964 14.8746C13.1792 14.9192 13.2717 14.9426 13.3657 14.9429H16.3997C16.509 14.9536 16.6191 14.9332 16.7173 14.8841C16.8156 14.8349 16.8979 14.7589 16.9549 14.6649C17.01 14.5748 17.0392 14.4712 17.0392 14.3655C17.0392 14.2598 17.01 14.1562 16.9548 14.0662C16.8996 13.9761 16.8207 13.9031 16.7266 13.8552C16.6326 13.8072 16.5271 13.7863 16.4219 13.7947L16.3997 13.7864Z" fill="currentColor"/>
<path d="M18.8452 10.7949V17.6395C18.8445 17.9568 18.7181 18.2609 18.4938 18.485C18.2696 18.7091 17.9657 18.8349 17.6488 18.8349H2.49272C2.1759 18.8349 1.87201 18.7091 1.64772 18.485C1.42344 18.2609 1.29706 17.9568 1.29633 17.6395V2.4574C1.29706 2.13984 1.42334 1.83549 1.64755 1.61094C1.87176 1.38639 2.17564 1.25992 2.49272 1.25918H17.6599C17.977 1.25992 18.2809 1.38639 18.5051 1.61094C18.7293 1.83549 18.8556 2.13984 18.8563 2.4574V4.29783H20V1.95142C20.0007 1.7099 19.9538 1.47061 19.8618 1.24732C19.7699 1.02404 19.6347 0.821164 19.4642 0.650377C19.2937 0.479589 19.0911 0.344262 18.8682 0.252172C18.6452 0.160082 18.4063 0.113044 18.1652 0.113778H1.98751C1.74633 0.113413 1.50743 0.160681 1.2845 0.252868C1.06157 0.345054 0.858969 0.480353 0.688295 0.65103C0.51762 0.821707 0.382219 1.02441 0.289836 1.24754C0.197454 1.47068 0.149902 1.70987 0.149902 1.95142V18.1455C0.150638 18.6331 0.344569 19.1005 0.689108 19.4451C1.03365 19.7896 1.50063 19.9831 1.98751 19.9831H18.154C18.395 19.9831 18.6336 19.9356 18.8562 19.8432C19.0788 19.7509 19.2811 19.6155 19.4515 19.4449C19.6219 19.2742 19.757 19.0717 19.8492 18.8487C19.9414 18.6258 19.9889 18.3868 19.9889 18.1455V10.7949H18.8452Z" fill="currentColor"/>
<path d="M19.9667 5.62402H18.8452V8.32906H19.9667V5.62402Z" fill="currentColor"/>
<defs>
<linearGradient id="paint0_linear_140_3002" x1="10.0709" y1="3.72266" x2="10.0709" y2="13.6782" gradientUnits="userSpaceOnUse">
<stop stop-color="#ADADAD"/>
<stop offset="0.0001" stop-color="white" stop-opacity="0"/>
</linearGradient>
</defs>
</svg>
