<svg width="22" height="22" viewBox="0 0 22 22" fill="transparent" xmlns="http://www.w3.org/2000/svg">
<ellipse cx="12.3751" cy="11.0002" rx="9.16667" ry="7.79167" transform="rotate(90 12.3751 11.0002)" stroke="currentColor" stroke-width="1.5" stroke-linejoin="round"/>
<path d="M12.5054 20.1668C12.48 20.1668 8.91986 20.1667 8.89458 20.1663C4.98776 20.114 1.83325 16.0302 1.83325 11.0002C1.83325 6.00272 4.94697 1.93932 8.81866 1.83553C8.86915 1.83417 14.2372 1.8335 12.48 1.8335" stroke="currentColor" stroke-width="1.5" stroke-linecap="round" stroke-linejoin="round"/>
<line x1="3.83325" y1="9" x2="2.58325" y2="9" stroke="currentColor" stroke-width="1.5" stroke-linecap="round" stroke-linejoin="round"/>
<line x1="3.83325" y1="12.6665" x2="2.58325" y2="12.6665" stroke="currentColor" stroke-width="1.5" stroke-linecap="round" stroke-linejoin="round"/>
<line x1="5.66675" y1="16.3335" x2="3.50008" y2="16.3335" stroke="currentColor" stroke-width="1.5" stroke-linecap="round" stroke-linejoin="round"/>
<line x1="5.66675" y1="5.3335" x2="3.50008" y2="5.3335" stroke="currentColor" stroke-width="1.5" stroke-linecap="round" stroke-linejoin="round"/>
<path fill-rule="evenodd" clip-rule="evenodd" d="M13.125 6.7832C13.125 6.36899 12.7892 6.0332 12.375 6.0332C11.9608 6.0332 11.625 6.36899 11.625 6.7832V7.625C11.2049 7.67492 10.7689 7.78913 10.3935 8.02295C9.91067 8.32368 9.56407 8.8032 9.48649 9.45636C9.42841 9.94535 9.48032 10.3954 9.66451 10.793C9.84962 11.1926 10.1404 11.4789 10.4597 11.6844C11.0455 12.0616 11.8132 12.2122 12.3926 12.3259L12.4203 12.3313L12.47 12.341C12.7681 12.3995 13.0295 12.4508 13.2662 12.5148C13.5175 12.5827 13.6899 12.6522 13.8035 12.7238C13.9061 12.7884 13.9335 12.8367 13.9458 12.8694C13.9608 12.9093 13.9886 13.024 13.9268 13.2765C13.8974 13.3964 13.818 13.5129 13.5902 13.6207C13.3458 13.7364 12.9884 13.8087 12.5527 13.8225C11.6632 13.8506 10.7429 13.6306 10.3872 13.4431C10.0207 13.25 9.56712 13.3905 9.374 13.7569C9.18089 14.1234 9.3214 14.577 9.68784 14.7701C10.1405 15.0086 10.8635 15.2006 11.625 15.2823V16.1332C11.625 16.5474 11.9608 16.8832 12.375 16.8832C12.7892 16.8832 13.125 16.5474 13.125 16.1332V15.2811C13.5068 15.2325 13.8889 15.1388 14.2319 14.9765C14.7498 14.7313 15.2193 14.3048 15.3837 13.6333C15.494 13.1831 15.5012 12.7443 15.3499 12.3417C15.1958 11.9319 14.9112 11.6487 14.6029 11.4545C14.3055 11.2672 13.9681 11.1506 13.6576 11.0667C13.3677 10.9883 13.0566 10.9274 12.7733 10.8719L12.7093 10.8594C12.0542 10.7308 11.5793 10.6213 11.2717 10.4232C11.1395 10.3381 11.0676 10.2531 11.0256 10.1625C10.9826 10.0698 10.9431 9.91071 10.976 9.63328C10.9964 9.46208 11.0641 9.37243 11.1865 9.29617C11.3417 9.19952 11.6006 9.12314 11.9698 9.0993C12.7061 9.05177 13.598 9.22951 14.1578 9.41781C14.5504 9.54986 14.9757 9.33864 15.1078 8.94603C15.2398 8.55343 15.0286 8.12812 14.636 7.99607C14.2377 7.86211 13.6999 7.72883 13.125 7.65365V6.7832Z" fill="currentColor"/>
</svg>
