<svg width="36" height="35" viewBox="0 0 36 35" fill="none" xmlns="http://www.w3.org/2000/svg">
    <path fill-rule="evenodd" clip-rule="evenodd" d="M16.5542 0.123657C25.222 0.123657 32.2486 7.15026 32.2486 15.818C32.2486 19.5232 30.9646 22.9286 28.8173 25.6133L35.2255 32.0231C35.9065 32.7041 35.9065 33.8082 35.2255 34.4892C34.5968 35.1179 33.6077 35.1662 32.9236 34.6343L32.7593 34.4892L26.3495 28.0811C23.6648 30.2284 20.2594 31.5124 16.5542 31.5124C7.88646 31.5124 0.859863 24.4858 0.859863 15.818C0.859863 7.15026 7.88646 0.123657 16.5542 0.123657ZM16.5542 3.61129C9.81263 3.61129 4.3475 9.07643 4.3475 15.818C4.3475 22.5596 9.81263 28.0247 16.5542 28.0247C23.2958 28.0247 28.7609 22.5596 28.7609 15.818C28.7609 9.07643 23.2958 3.61129 16.5542 3.61129Z" fill="#6A6464" />
</svg>