<svg width="22" height="22" viewBox="0 0 22 22" fill="transparent" xmlns="http://www.w3.org/2000/svg">
<path d="M4.58325 19.25V4.58333C4.58325 4.0971 4.77641 3.63079 5.12022 3.28697C5.46404 2.94315 5.93035 2.75 6.41659 2.75H15.5833C16.0695 2.75 16.5358 2.94315 16.8796 3.28697C17.2234 3.63079 17.4166 4.0971 17.4166 4.58333V19.25L14.6666 17.4167L12.8333 19.25L10.9999 17.4167L9.16659 19.25L7.33325 17.4167L4.58325 19.25Z" stroke="currentColor" stroke-width="1.5" stroke-linecap="round" stroke-linejoin="round"/>
<path fill-rule="evenodd" clip-rule="evenodd" d="M11.7502 5.68311C11.7502 5.26889 11.4144 4.93311 11.0002 4.93311C10.586 4.93311 10.2502 5.26889 10.2502 5.68311V6.43639C9.8626 6.48623 9.46071 6.59523 9.11191 6.81248C8.6469 7.10212 8.31249 7.5649 8.23779 8.19381C8.18239 8.66026 8.2316 9.09239 8.40912 9.47557C8.58755 9.86072 8.86766 10.1361 9.17365 10.3331C9.73223 10.6927 10.4619 10.8358 11.0051 10.9424L11.0344 10.9481L11.0805 10.9572L11.0805 10.9572C11.3616 11.0123 11.6063 11.0603 11.8275 11.1201C12.0622 11.1835 12.2197 11.2476 12.3211 11.3115C12.4117 11.3686 12.4299 11.4072 12.4373 11.4269C12.4474 11.4537 12.4746 11.5521 12.4178 11.784C12.3942 11.8805 12.3309 11.9811 12.125 12.0785C11.9026 12.1838 11.5729 12.2513 11.1661 12.2642C10.3342 12.2905 9.4762 12.0842 9.14986 11.9122C8.78342 11.7191 8.32981 11.8596 8.1367 12.226C7.94358 12.5925 8.08409 13.0461 8.45054 13.2392C8.87452 13.4627 9.54349 13.6421 10.2502 13.7218V14.4831C10.2502 14.8973 10.586 15.2331 11.0002 15.2331C11.4144 15.2331 11.7502 14.8973 11.7502 14.4831V13.7198C12.1002 13.6723 12.4504 13.584 12.7667 13.4343C13.2628 13.1995 13.7161 12.789 13.8748 12.1407C13.98 11.7112 13.9878 11.2887 13.8414 10.8991C13.6922 10.5023 13.4168 10.2289 13.1205 10.0423C12.8352 9.86262 12.5129 9.75151 12.2189 9.67205C11.9444 9.59787 11.6502 9.54025 11.3839 9.48809L11.3838 9.48809L11.3233 9.47623C10.7046 9.35478 10.2668 9.25288 9.98566 9.07189C9.86675 8.99534 9.80548 8.92127 9.77016 8.84504C9.73393 8.76683 9.69704 8.62563 9.72732 8.37073C9.74477 8.22378 9.80032 8.15087 9.90495 8.0857C10.0423 8.00013 10.2779 7.92919 10.6217 7.90699C11.3073 7.86273 12.1408 8.02855 12.6641 8.20455C13.0567 8.3366 13.482 8.12538 13.6141 7.73278C13.7461 7.34017 13.5349 6.91486 13.1423 6.78281C12.7742 6.65902 12.2802 6.53575 11.7502 6.46372V5.68311Z" fill="currentColor"/>
</svg>
