<svg width="54" height="54" viewBox="0 0 54 54" fill="transparent" xmlns="http://www.w3.org/2000/svg">
<path d="M31.7998 19.7999V10.2C31.7998 8.29041 31.0413 6.45907 29.691 5.10882C28.3407 3.75856 26.5094 3 24.5999 3L14.9999 24.5999V50.9997H42.0718C43.2293 51.0128 44.3526 50.6071 45.2347 49.8573C46.1168 49.1076 46.6981 48.0643 46.8717 46.9197L50.1837 25.3199C50.2881 24.6319 50.2417 23.9295 50.0477 23.2613C49.8537 22.593 49.5167 21.975 49.0602 21.4499C48.6036 20.9248 48.0383 20.5053 47.4035 20.2204C46.7687 19.9355 46.0795 19.792 45.3837 19.7999H31.7998ZM14.9999 50.9997H7.79997C6.52694 50.9997 5.30605 50.494 4.40588 49.5938C3.50571 48.6936 3 47.4728 3 46.1997V29.3998C3 28.1268 3.50571 26.9059 4.40588 26.0057C5.30605 25.1056 6.52694 24.5999 7.79997 24.5999H14.9999" fill="transparent" fill-opacity="0.14"/>
<path d="M14.9999 50.9997H7.79997C6.52694 50.9997 5.30605 50.494 4.40588 49.5938C3.50571 48.6936 3 47.4728 3 46.1997V29.3998C3 28.1268 3.50571 26.9059 4.40588 26.0057C5.30605 25.1056 6.52694 24.5999 7.79997 24.5999H14.9999M31.7998 19.7999V10.2C31.7998 8.29041 31.0413 6.45907 29.691 5.10882C28.3407 3.75856 26.5094 3 24.5999 3L14.9999 24.5999V50.9997H42.0718C43.2293 51.0128 44.3526 50.6071 45.2347 49.8573C46.1168 49.1076 46.6981 48.0643 46.8717 46.9197L50.1837 25.3199C50.2881 24.6319 50.2417 23.9295 50.0477 23.2613C49.8537 22.593 49.5167 21.975 49.0602 21.4499C48.6036 20.9248 48.0383 20.5053 47.4035 20.2204C46.7687 19.9355 46.0795 19.792 45.3837 19.7999H31.7998Z" fill="transparent" stroke="currentColor" stroke-width="6" stroke-linecap="round" stroke-linejoin="round"/>
</svg>
